<svg xmlns="http://www.w3.org/2000/svg" viewBox="0 0 170.17 50.2"><defs><style>.d{fill:#9ca3af}</style></defs><g id="b"><g id="c"><path class="d" d="M26.03 44.64c-1.42.38-2.88.51-4.35.58-.34.01-.68 0-1.02 0-4.9.01-9.33-1.42-13.21-4.44-1.59-1.24-2.98-2.67-4.04-4.4-.24-.4-.46-.81-.58-1.26-.12-.46-.06-.55.4-.45.73.15 1.46.28 2.18.48 1.06.29 2.13.22 3.21.12 1.58-.14 3.08-.63 4.61-1.01 1.47-.36 2.92-.23 4.33.35.79.33 1.57.7 2.42.87.56.12 1.13.11 1.69.08s1.09.09 1.54.45c.4.31.43.51.18.94-.67 1.1-1.56 1.48-2.93 1.26-.73-.12-1.45-.27-2.19-.26-.43 0-.84.1-1.26.18-.16.03-.17.11-.11.24.19.4.52.68.88.9 1.16.7 2.4 1.22 3.68 1.66.3.1.61.14.92.14.67 0 1.34 0 2.01-.01.63 0 1.26-.01 1.89.12.92.19 1.54.76 1.96 1.57.16.3.08.58-.19.85-.57.56-1.29.85-2.04 1.05ZM18.3 1.97a8.37 8.37 0 0 1-1.82-.66C21.45-.34 26.38-.41 31.39 1c-.62.5-1.28.76-1.97.97-1.43.42-2.9.59-4.39.64-2.28.09-4.53-.08-6.74-.64ZM5.19 29c-1.45-.4-2.87-.88-4.26-1.44a.695.695 0 0 1-.44-.5c-.23-.81-.33-1.64-.49-2.48.63.28 1.26.57 1.89.83 2.59 1.09 5.29 1.78 8.04 2.29 3.47.64 6.97 1.02 10.49 1.14 1.71.06 3.42.07 5.13.01 1.7-.05 3.4-.12 5.09-.3.09-.01.17-.01.26-.01.15 0 .26.06.3.21.04.15-.01.27-.14.34-1.05.57-2.04 1.23-3.06 1.84-.47.28-1.01.21-1.52.23-1.88.08-3.76.08-5.64.03-2.13-.05-4.24-.19-6.36-.43-3.14-.35-6.23-.92-9.27-1.77ZM8.22 5.87c.54-.47 1.14-.87 1.72-1.3.11-.08.19-.03.28 0 1.86.85 3.8 1.47 5.8 1.89 2.09.44 4.21.67 6.35.73 1.8.05 3.59 0 5.38-.18 3.45-.36 6.76-1.17 9.76-3.02.13-.08.22-.09.35 0 .57.35 1.12.74 1.66 1.14.14.1.13.19.02.29-.08.07-.18.13-.27.2-2.47 1.74-5.24 2.73-8.19 3.26-2.51.45-5.05.7-7.61.7-4.09-.02-8.09-.61-11.97-1.93-1.12-.38-2.19-.88-3.23-1.44-.19-.1-.24-.16-.05-.33Z"/><path class="d" d="M3.33 11.32c.34-.55.73-1.06 1.11-1.58.12-.16.2-.06.3 0 2.1 1.34 4.35 2.34 6.72 3.08 2.3.72 4.66 1.18 7.06 1.46 1.96.22 3.92.34 5.88.3 4.28-.08 8.52-.52 12.63-1.78 2.49-.76 4.84-1.82 6.95-3.36.14-.11.21-.09.31.04.38.48.74.98 1.09 1.48.11.17.08.25-.07.36-1.5 1.15-3.17 2-4.91 2.73-2.51 1.04-5.13 1.71-7.81 2.15-2.86.47-5.74.7-8.63.7-4.02-.01-7.99-.39-11.89-1.44-3.07-.83-5.97-2.05-8.65-3.78-.18-.11-.2-.19-.09-.36Z"/><path class="d" d="M.29 18.81c.15-.63.32-1.24.52-1.85.05-.16.08-.21.26-.12 3.36 1.93 7.02 3 10.79 3.71 3.01.57 6.05.87 9.11.98 3.13.12 6.25.03 9.37-.23 3.44-.29 6.84-.81 10.15-1.82 2.14-.66 4.23-1.46 6.13-2.67.34-.21.66-.44.98-.67.14-.09.2-.07.26.09.23.62.42 1.25.6 1.88.05.18-.03.26-.15.35-1.19.83-2.48 1.48-3.81 2.04-2.69 1.14-5.49 1.88-8.36 2.4a63.9 63.9 0 0 1-8.83.95c-1.12.05-2.25.09-3.14.06-2.78 0-5.31-.09-7.85-.35-4.4-.43-8.69-1.32-12.82-2.94-1.06-.42-2.08-.9-3.06-1.46-.16-.09-.2-.17-.16-.35ZM48.91 22.25c.07.75.03 1.49-.04 2.23a33.17 33.17 0 0 1-2.15 8.94c-1.31 3.33-3.12 6.34-5.57 8.96-2.97 3.17-6.56 5.39-10.66 6.8-1.02.35-2.04.66-3.09.94-.08.02-.17.03-.25.04v.05c-.01-.01-.01-.03-.01-.04s0-.03.02-.03c.66-.18 1.32-.4 1.98-.59 1.49-.44 2.94-.98 4.34-1.66 1.85-.89 3.58-1.96 5.17-3.26 2.17-1.77 3.99-3.85 5.48-6.22 1.28-2.02 2.29-4.17 3.05-6.44.73-2.17 1.25-4.39 1.52-6.67.1-.84.19-1.69.16-2.54v-.23c-.02-.31-.07-.33-.34-.2-.36.17-.7.37-1.05.55-.17.09-.24.22-.27.4-.22 1.46-.88 2.69-1.95 3.72-1.02.98-2.27 1.54-3.57 2.04-1.19.46-2.44.74-3.69 1.01-1.24.27-2.4.75-3.51 1.35-1.61.87-3.1 1.91-4.49 3.1-1.09.93-2.11 1.93-2.94 3.1-.35.48-.63 1.01-.8 1.58-.15.5 0 .78.46.98 1.15.48 2.24.44 3.26-.34.75-.58 1.45-1.22 2.2-1.79.19-.15.4-.28.6-.43.43-.31.93-.37 1.42-.43.35-.05.43.08.36.44-.13.71-.47 1.31-.91 1.87-.51.64-.98 1.32-1.39 2.03-.33.58-.7 1.12-1.14 1.62-.42.47-.92.85-1.46 1.16-.54.32-1.02.73-1.48 1.14-.87.77-1.65 1.61-2.16 2.67-.17.36-.31.73-.34 1.14-.03.36.13.62.43.8.07.04.19.05.18.19-.09-.11-.24-.1-.34-.19-.35-.29-.4-.66-.32-1.08.19-.86.64-1.58 1.2-2.25.85-1.01 1.81-1.89 2.95-2.58.88-.53 1.55-1.26 2.07-2.13.61-1.02 1.27-2.01 2-2.95.36-.46.54-.99.64-1.55.04-.19 0-.3-.22-.26-.54.09-1.07.15-1.55.48-.86.6-1.64 1.3-2.45 1.97-.59.48-1.23.84-2.01.87a3.28 3.28 0 0 1-1.84-.46c-.29-.17-.38-.46-.27-.85.21-.8.63-1.49 1.15-2.12 2.48-2.96 5.49-5.21 9.08-6.68.99-.4 2.05-.55 3.09-.81 1.54-.39 3.04-.9 4.42-1.71 1.6-.95 2.66-2.32 3.13-4.13.03-.13.08-.26.07-.39-.02-.34.14-.53.44-.67.39-.18.77-.4 1.15-.6.14-.08.19-.05.21.11ZM76.33 38.86c.08.69.07 1.37-.14 2.04-.43 1.38-1.44 2.17-2.77 2.6-.8.26-1.62.34-2.46.34-1.27-.03-2.53-.15-3.72-.62-.38-.15-.74-.34-1.07-.57-.09-.06-.16-.12-.16-.25.03-.46.04-.92.08-1.38.07-.74.64-1.03 1.29-.67 1.38.77 2.86.97 4.41.77.4-.05.77-.2 1.09-.44.4-.31.59-.73.52-1.24-.06-.51-.41-.76-.85-.92-.67-.23-1.37-.27-2.06-.34-.83-.08-1.65-.2-2.43-.5-1.14-.43-1.84-1.21-2.03-2.43-.2-1.37 0-2.64.99-3.69.68-.73 1.54-1.15 2.51-1.34 1.81-.37 3.58-.23 5.32.42h.03c.69.29.78.47.57 1.2-.24.88-1.12 1.34-2.06 1.09-1.01-.27-2.02-.38-3.05-.14-.39.09-.75.27-1.03.55-.68.68-.47 1.56.44 1.85.57.18 1.17.21 1.76.26.94.06 1.88.19 2.76.56 1.26.54 1.91 1.51 2.06 2.85ZM79.6 6.44c.01-.14-.05-.18-.18-.17h-.88c-.72.03-1.33.55-1.47 1.26-.04.19-.05.39-.08.64-.23-.29-.43-.54-.67-.75-1.11-1-2.44-1.4-3.9-1.43-2.55-.04-4.58.94-5.88 3.19-.85 1.47-1.06 3.07-.84 4.74.19 1.45.74 2.75 1.78 3.8 1.4 1.43 3.14 1.99 5.11 1.9 1.5-.07 2.83-.53 3.92-1.6h.06c0 .27.01.54 0 .82-.11 1.68-1.1 2.9-2.71 3.38-.94.28-1.9.3-2.86.19a6.88 6.88 0 0 1-2.81-.97c-.54-.33-1.17.03-1.2.66-.02.42-.03.85-.06 1.27-.01.15.04.24.16.33.4.3.82.55 1.28.73 2.23.87 4.51 1 6.8.35 1.74-.49 3.05-1.54 3.82-3.21.48-1.03.63-2.13.63-3.25V6.45Zm-3.48 8.61c-.81 1.44-2.38 2.04-3.94 1.85-2.21-.27-3.5-1.81-3.5-4.55.01-.88.4-2.08 1.52-2.89 1.3-.94 2.74-1.03 4.2-.44 1.4.57 2.07 1.72 2.25 3.18.12 1-.01 1.96-.51 2.85ZM81.47 19.27V4.2c0-.84.65-1.51 1.49-1.55.42-.01.83 0 1.25-.01.22-.01.26.07.26.27v15.57c0 .76-.26 1.02-1.02 1.02h-1.73c-.19 0-.26-.04-.26-.25ZM92.06 30.56c.01-.21-.06-.26-.26-.24-.25.01-.49 0-.74 0-.82 0-1.48.59-1.58 1.41-.02.15-.03.29-.05.51-.5-.67-1.06-1.17-1.75-1.52-1.18-.6-2.44-.78-3.74-.64-2.07.22-3.68 1.18-4.78 2.95-1.07 1.72-1.29 3.6-.9 5.56.34 1.74 1.21 3.16 2.69 4.17 1.46.99 3.09 1.26 4.82 1.02 1.17-.16 2.22-.59 3.08-1.42.2-.2.39-.42.59-.63.06.06.05.13.05.2.02.47.05.94.05 1.41 0 .18.04.26.25.25.44-.02.89 0 1.33 0 .62 0 .92-.31.92-.92v-11.1c0-.33-.01-.66 0-.99Zm-4.51 9.83c-1.93 1.46-5.69.98-6.33-2.5-.26-1.42-.05-2.79.95-3.89 1.14-1.25 2.6-1.51 4.18-1.08 1.54.43 2.38 1.54 2.69 3.08.07.31.08.63.09.96-.02 1.38-.45 2.58-1.58 3.44ZM100.39 11.91c-.28-2.21-1.34-3.92-3.3-5.02-1.5-.84-3.12-1.06-4.8-.84-2.21.29-3.96 1.34-5.06 3.31-.86 1.53-1.04 3.19-.75 4.91.23 1.41.85 2.63 1.88 3.62 1.4 1.33 3.11 1.88 5.01 1.89.42 0 .83-.02 1.25-.08 2.19-.35 3.91-1.39 5.01-3.36.77-1.38.98-2.89.78-4.44Zm-3.41 3.01c-.78 1.64-2.43 2.32-4.04 2.16-2.2-.22-3.56-1.97-3.56-4.43.03-1.07.4-2.25 1.47-3.13 1.89-1.55 5.77-1.13 6.47 2.36.2 1.04.12 2.07-.34 3.04ZM107.9 27.02v-.14c.01-.15-.05-.19-.2-.19-.34.01-.68 0-1.02 0-1.15 0-1.8.65-1.8 1.81v2.92c0 .08.03.16-.04.24-.19-.16-.37-.33-.56-.47-.96-.74-2.07-1.07-3.26-1.13-2.47-.14-4.49.71-5.9 2.79-1.15 1.69-1.4 3.6-1.05 5.58.31 1.76 1.16 3.22 2.64 4.26 1.45 1.02 3.09 1.32 4.82 1.09 1.47-.19 2.73-.79 3.66-1.99.03-.03.04-.09.13-.07.02.54.05 1.08.07 1.62 0 .16.04.23.22.23.49-.01.98 0 1.48 0 .47 0 .78-.3.82-.77.01-.08 0-.17 0-.26V27.02Zm-3.57 12.32c-.87 1.4-2.34 1.99-3.98 1.76-1.68-.23-2.85-1.33-3.25-2.97-.09-.39-.15-.78-.13-1.18.02-1.44.47-2.69 1.7-3.55 2-1.39 5.8-.81 6.26 2.89.13 1.08-.02 2.11-.6 3.05ZM116.23 11.6c-.51-3.37-3.15-5.64-6.55-5.61-1.62.01-3.07.44-4.24 1.63-.01.02-.04.02-.1.04V2.89c0-.2-.04-.26-.25-.25-.4.02-.79 0-1.19.01-.9.03-1.57.7-1.57 1.6v15.02c0 .21.08.25.26.25.48-.01.97 0 1.45 0 .54 0 .83-.29.86-.83.02-.34.03-.67.05-1.09.51.68 1.07 1.17 1.75 1.53 1.02.53 2.1.71 3.23.68 2.21-.07 4-.97 5.23-2.82 1.09-1.64 1.34-3.46 1.06-5.37Zm-5.03 5.05c-2.18 1.15-5.43.19-5.88-3.02-.17-1.26.01-2.46.83-3.48 1.11-1.39 2.62-1.74 4.28-1.31 1.6.41 2.47 1.55 2.79 3.13.03.12.04.24.05.36.01.19.02.38.04.6-.05 1.58-.62 2.92-2.11 3.71ZM123.56 30.31c-.27.01-.55 0-.82 0-.75 0-1.36.5-1.54 1.22-.05.21-.02.43-.07.64-.11-.03-.14-.12-.19-.18a4.94 4.94 0 0 0-1.49-1.24c-1.2-.64-2.48-.82-3.82-.68-2.01.21-3.6 1.14-4.7 2.83-1.15 1.77-1.38 3.73-.95 5.76.39 1.86 1.37 3.34 3.03 4.31 1.39.82 2.91 1.02 4.48.79 1.3-.19 2.44-.71 3.33-1.7.11-.12.2-.24.34-.41.03.62.07 1.17.08 1.72 0 .16.05.21.21.2.43-.01.85 0 1.28 0 .74 0 1.03-.29 1.03-1.02V30.51c.02-.15-.04-.2-.19-.19Zm-3.84 9.64c-.78.85-1.78 1.2-2.92 1.19-2.09 0-3.69-1.42-3.94-3.51-.15-1.3.05-2.52.91-3.54 1.08-1.28 2.5-1.6 4.08-1.24 1.56.36 2.5 1.4 2.84 2.94.34 1.52.12 2.95-.97 4.15ZM131.97 6.26c-.28.01-.56 0-.85 0-.81.02-1.46.66-1.52 1.47-.01.13.01.26-.07.41-.21-.27-.42-.52-.66-.74-1.1-.99-2.43-1.39-3.88-1.42-2.47-.04-4.43.91-5.74 3.03-1.02 1.65-1.24 3.46-.91 5.34.31 1.75 1.14 3.21 2.61 4.25 1.55 1.1 3.29 1.37 5.13 1.07 1.38-.23 2.55-.84 3.42-1.98.02-.03.05-.05.15-.03.03.51.03 1.02.02 1.52 0 .23.05.34.31.32.42-.02.85 0 1.28 0 .63 0 .92-.28.92-.91V6.48c.02-.15-.03-.22-.2-.21Zm-3.34 9.01c-.89 1.4-2.21 1.95-3.83 1.8-2.28-.21-3.53-2.07-3.55-4.06 0-1.25.31-2.37 1.22-3.27.79-.78 1.78-1.07 2.55-1.07 1.21.03 2.04.27 2.75.85 1.01.82 1.42 1.93 1.48 3.18.04.91-.13 1.79-.63 2.57ZM134.37 19.25V4.34c0-1.02.65-1.69 1.68-1.7.36 0 .72.01 1.07 0 .23-.01.26.07.26.27v15.68c0 .64-.29.93-.93.93-.6 0-1.21-.01-1.82 0-.21 0-.27-.05-.26-.27ZM139.59 30.51c.02-.15-.04-.2-.19-.19-.29.01-.59 0-.88 0-.78.03-1.45.69-1.49 1.47-.01.13-.02.26-.03.44-.32-.41-.63-.74-.99-1.02-.98-.75-2.1-1.09-3.32-1.16-2.08-.12-3.88.48-5.3 2.04-1.95 2.12-2.35 5.75-.95 8.38 1.62 3.05 4.98 3.95 7.89 3.06.85-.25 1.58-.71 2.24-1.38V46.7c0 .24.07.3.3.29.58-.01 1.15 0 1.73 0 .7 0 .98-.28.98-.98v-15.5Zm-5.1 10.23c-2.24 1.1-5.47.09-5.8-3.28-.11-1.1.08-2.13.69-3.06.87-1.33 2.56-1.95 4.21-1.57 1.73.39 2.92 1.8 3.05 3.6.01.18.02.36.03.58-.05 1.6-.63 2.97-2.18 3.73ZM155.43 30.51c.02-.15-.05-.2-.19-.19-.3.01-.6-.01-.91 0-.77.04-1.4.66-1.47 1.43-.01.14 0 .28-.07.44-.27-.32-.52-.63-.84-.89-.99-.81-2.14-1.18-3.4-1.25-2.31-.13-4.25.61-5.67 2.47-1.19 1.55-1.54 3.35-1.37 5.27.31 3.49 2.88 5.95 6.38 6.05 1.55.04 2.99-.32 4.2-1.38.27-.23.48-.5.71-.76l.12.02v1.61c0 .18.05.25.24.24.44-.01.87 0 1.31 0 .68 0 .96-.29.96-.97V30.5Zm-3.68 9.01c-1.02 1.43-2.47 1.85-4.12 1.53-1.6-.3-2.56-1.35-2.98-2.9-.11-.4-.13-.82-.14-1.12.01-1.09.24-2 .84-2.79.96-1.25 2.28-1.68 3.8-1.45 1.92.28 3.17 1.67 3.34 3.61.11 1.13-.07 2.19-.73 3.12ZM170.17 43.06c-.27.43-.67.54-1.16.52-.53-.03-1.06-.02-1.59 0-.21 0-.26-.05-.26-.26v-7.31c0-.58-.11-1.15-.35-1.68-.43-.93-1.18-1.44-2.17-1.56-1.01-.12-1.97.03-2.76.73-.73.64-1.02 1.5-1.12 2.43-.09.89-.04 1.77-.04 2.66v4.7c0 .22-.06.28-.28.28-.83-.01-1.66-.01-2.5 0-.18 0-.24-.04-.24-.23V28.32c0-.94.7-1.62 1.63-1.63.37 0 .74.01 1.11 0 .21-.01.27.05.27.27-.01 1.52 0 3.04 0 4.56v.18c.08.04.11 0 .14-.04 1-1.13 2.31-1.56 3.77-1.62 1.08-.04 2.13.13 3.09.68 1.29.74 1.98 1.9 2.3 3.32.06.25.08.5.13.75h.05c-.01 0-.03.01-.04 0s-.03-.01-.04-.03c-.09-.13-.1-.28-.12-.43-.13-.79-.4-1.52-.84-2.18-.63-.95-1.52-1.54-2.61-1.83-1.33-.34-2.66-.29-3.95.21-.52.2-.97.5-1.37.9l-.16.16c-.08.07-.16.18-.29.14-.14-.05-.12-.2-.12-.32v-4.28c0-.36-.01-.38-.36-.37-.42 0-.83-.04-1.25.05-.61.13-1.07.61-1.18 1.23-.03.19-.05.39-.05.59v14.64c0 .13.08.19.2.19.8.01 1.61.01 2.41 0 .15 0 .21-.09.22-.23v-.28c0-2.12-.01-4.25 0-6.38 0-.87.16-1.71.63-2.47.48-.78 1.18-1.24 2.07-1.4.72-.13 1.45-.12 2.15.18.73.31 1.22.84 1.5 1.57.2.51.29 1.03.29 1.58v7c0 .43 0 .44.44.44h1.42c.34 0 .64-.06.86-.34.05-.05.11-.11.19-.09Z"/><path class="d" d="M48.87 24.48a33.17 33.17 0 0 1-2.15 8.94c-1.31 3.33-3.12 6.34-5.57 8.96-2.97 3.17-6.56 5.39-10.66 6.8-1.02.35-2.04.66-3.09.94-.08.02-.17.03-.25.04h-.02c-.08.03-.16 0-.25.01h-.02c-.11.01-.23-.03-.34.03h-.23c-.09-.11-.24-.1-.34-.19-.35-.29-.4-.66-.32-1.08.19-.86.64-1.58 1.2-2.25.85-1.01 1.81-1.89 2.95-2.58.88-.53 1.55-1.26 2.07-2.13.61-1.02 1.27-2.01 2-2.95.36-.46.54-.99.64-1.55.04-.19 0-.3-.22-.26-.54.09-1.07.15-1.55.48-.86.6-1.64 1.3-2.45 1.97-.59.48-1.23.84-2.01.87a3.28 3.28 0 0 1-1.84-.46c-.29-.17-.38-.46-.27-.85.21-.8.63-1.49 1.15-2.12 2.48-2.96 5.49-5.21 9.08-6.68.99-.4 2.05-.55 3.09-.81 1.54-.39 3.04-.9 4.42-1.71 1.6-.95 2.66-2.32 3.13-4.13.03-.13.08-.26.07-.39-.02-.34.14-.53.44-.67.39-.18.77-.4 1.15-.6.14-.08.19-.05.21.11.07.75.03 1.49-.04 2.23ZM170.17 35.13v7.93c-.27.43-.67.54-1.16.52-.53-.03-1.06-.02-1.59 0-.21 0-.26-.05-.26-.26v-7.31c0-.58-.11-1.15-.35-1.68-.43-.93-1.18-1.44-2.17-1.56-1.01-.12-1.97.03-2.76.73-.73.64-1.02 1.5-1.12 2.43-.09.89-.04 1.77-.04 2.66v4.7c0 .22-.06.28-.28.28-.83-.01-1.66-.01-2.5 0-.18 0-.24-.04-.24-.23V28.32c0-.94.7-1.62 1.63-1.63.37 0 .74.01 1.11 0 .21-.01.27.05.27.27-.01 1.52 0 3.04 0 4.56v.18c.08.04.11 0 .14-.04 1-1.13 2.31-1.56 3.77-1.62 1.08-.04 2.13.13 3.09.68 1.29.74 1.98 1.9 2.3 3.32.06.25.08.5.13.75.05.12-.02.24.04.35Z"/><path class="d" d="M170.17 34.78v.34c-.09-.1-.05-.22-.05-.34s.03 0 .05 0ZM26.53 50.2c.1-.1.23-.04.35-.05.02.01.02.02.01.04 0 .01-.01.02-.02.02h-.34Z"/><path class="d" d="M27.15 50.15v.05h-.28v-.05h.28ZM28.08 43.6c-.57.56-1.29.85-2.04 1.05-1.42.38-2.88.51-4.35.58-.34.01-.68 0-1.02 0-4.9.01-9.33-1.42-13.21-4.44-1.59-1.24-2.98-2.67-4.04-4.4-.24-.4-.46-.81-.58-1.26-.12-.46-.06-.55.4-.45.73.15 1.46.28 2.18.48 1.06.29 2.13.22 3.21.12 1.58-.14 3.08-.63 4.61-1.01 1.47-.36 2.92-.23 4.33.35.79.33 1.57.7 2.42.87.56.12 1.13.11 1.69.08s1.09.09 1.54.45c.4.31.43.51.18.94-.67 1.1-1.56 1.48-2.93 1.26-.73-.12-1.45-.27-2.19-.26-.43 0-.84.1-1.26.18-.16.03-.17.11-.11.24.19.4.52.68.88.9 1.16.7 2.4 1.22 3.68 1.66.3.1.61.14.92.14.67 0 1.34 0 2.01-.01.63 0 1.26-.01 1.89.12.92.19 1.54.76 1.96 1.57.16.3.08.58-.19.85ZM79.6 6.44c.01-.14-.05-.18-.18-.17h-.88c-.72.03-1.33.55-1.47 1.26-.04.19-.05.39-.08.64-.23-.29-.43-.54-.67-.75-1.11-1-2.44-1.4-3.9-1.43-2.55-.04-4.58.94-5.88 3.19-.85 1.47-1.06 3.07-.84 4.74.19 1.45.74 2.75 1.78 3.8 1.4 1.43 3.14 1.99 5.11 1.9 1.5-.07 2.83-.53 3.92-1.6h.06c0 .27.01.54 0 .82-.11 1.68-1.1 2.9-2.71 3.38-.94.28-1.9.3-2.86.19a6.88 6.88 0 0 1-2.81-.97c-.54-.33-1.17.03-1.2.66-.02.42-.03.85-.06 1.27-.01.15.04.24.16.33.4.3.82.55 1.28.73 2.23.87 4.51 1 6.8.35 1.74-.49 3.05-1.54 3.82-3.21.48-1.03.63-2.13.63-3.25V6.45Zm-3.48 8.61c-.81 1.44-2.38 2.04-3.94 1.85-2.21-.27-3.5-1.81-3.5-4.55.01-.88.4-2.08 1.52-2.89 1.3-.94 2.74-1.03 4.2-.44 1.4.57 2.07 1.72 2.25 3.18.12 1-.01 1.96-.51 2.85ZM116.23 11.6c-.51-3.37-3.15-5.64-6.55-5.61-1.62.01-3.07.44-4.24 1.63-.01.02-.04.02-.1.04V2.89c0-.2-.04-.26-.25-.25-.4.02-.79 0-1.19.01-.9.03-1.57.7-1.57 1.6v15.02c0 .21.08.25.26.25.48-.01.97 0 1.45 0 .54 0 .83-.29.86-.83.02-.34.03-.67.05-1.09.51.68 1.07 1.17 1.75 1.53 1.02.53 2.1.71 3.23.68 2.21-.07 4-.97 5.23-2.82 1.09-1.64 1.34-3.46 1.06-5.37Zm-5.03 5.05c-2.18 1.15-5.43.19-5.88-3.02-.17-1.26.01-2.46.83-3.48 1.11-1.39 2.62-1.74 4.28-1.31 1.6.41 2.47 1.55 2.79 3.13.03.12.04.24.05.36.01.19.02.38.04.6-.05 1.58-.62 2.92-2.11 3.71ZM107.9 27.02v-.14c.01-.15-.05-.19-.2-.19-.34.01-.68 0-1.02 0-1.15 0-1.8.65-1.8 1.81v2.92c0 .08.03.16-.04.24-.19-.16-.37-.33-.56-.47-.96-.74-2.07-1.07-3.26-1.13-2.47-.14-4.49.71-5.9 2.79-1.15 1.69-1.4 3.6-1.05 5.58.31 1.76 1.16 3.22 2.64 4.26 1.45 1.02 3.09 1.32 4.82 1.09 1.47-.19 2.73-.79 3.66-1.99.03-.03.04-.09.13-.07.02.54.05 1.08.07 1.62 0 .16.04.23.22.23.49-.01.98 0 1.48 0 .47 0 .78-.3.82-.77.01-.08 0-.17 0-.26V27.02Zm-3.57 12.32c-.87 1.4-2.34 1.99-3.98 1.76-1.68-.23-2.85-1.33-3.25-2.97-.09-.39-.15-.78-.13-1.18.02-1.44.47-2.69 1.7-3.55 2-1.39 5.8-.81 6.26 2.89.13 1.08-.02 2.11-.6 3.05ZM139.59 30.51c.02-.15-.04-.2-.19-.19-.29.01-.59 0-.88 0-.78.03-1.45.69-1.49 1.47-.01.13-.02.26-.03.44-.32-.41-.63-.74-.99-1.02-.98-.75-2.1-1.09-3.32-1.16-2.08-.12-3.88.48-5.3 2.04-1.95 2.12-2.35 5.75-.95 8.38 1.62 3.05 4.98 3.95 7.89 3.06.85-.25 1.58-.71 2.24-1.38V46.7c0 .24.07.3.3.29.58-.01 1.15 0 1.73 0 .7 0 .98-.28.98-.98v-15.5Zm-5.1 10.23c-2.24 1.1-5.47.09-5.8-3.28-.11-1.1.08-2.13.69-3.06.87-1.33 2.56-1.95 4.21-1.57 1.73.39 2.92 1.8 3.05 3.6.01.18.02.36.03.58-.05 1.6-.63 2.97-2.18 3.73ZM48.32 18.45c-1.19.83-2.48 1.48-3.81 2.04-2.69 1.14-5.49 1.88-8.36 2.4a63.9 63.9 0 0 1-8.83.95c-1.12.05-2.25.09-3.14.06-2.78 0-5.31-.09-7.85-.35-4.4-.43-8.69-1.32-12.82-2.94-1.06-.42-2.08-.9-3.06-1.46-.16-.09-.2-.17-.16-.35.15-.63.32-1.24.52-1.85.05-.16.08-.21.26-.12 3.36 1.93 7.02 3 10.79 3.71 3.01.57 6.05.87 9.11.98 3.13.12 6.25.03 9.37-.23 3.44-.29 6.84-.81 10.15-1.82 2.14-.66 4.23-1.46 6.13-2.67.34-.21.66-.44.98-.67.14-.09.2-.07.26.09.23.62.42 1.25.6 1.88.05.18-.03.26-.15.35ZM123.56 30.31c-.27.01-.55 0-.82 0-.75 0-1.36.5-1.54 1.22-.05.21-.02.43-.07.64-.11-.03-.14-.12-.19-.18a4.94 4.94 0 0 0-1.49-1.24c-1.2-.64-2.48-.82-3.82-.68-2.01.21-3.6 1.14-4.7 2.83-1.15 1.77-1.38 3.73-.95 5.76.39 1.86 1.37 3.34 3.03 4.31 1.39.82 2.91 1.02 4.48.79 1.3-.19 2.44-.71 3.33-1.7.11-.12.2-.24.34-.41.03.62.07 1.17.08 1.72 0 .16.05.21.21.2.43-.01.85 0 1.28 0 .74 0 1.03-.29 1.03-1.02V30.51c.02-.15-.04-.2-.19-.19Zm-3.84 9.64c-.78.85-1.78 1.2-2.92 1.19-2.09 0-3.69-1.42-3.94-3.51-.15-1.3.05-2.52.91-3.54 1.08-1.28 2.5-1.6 4.08-1.24 1.56.36 2.5 1.4 2.84 2.94.34 1.52.12 2.95-.97 4.15ZM92.06 30.56c.01-.21-.06-.26-.26-.24-.25.01-.49 0-.74 0-.82 0-1.48.59-1.58 1.41-.02.15-.03.29-.05.51-.5-.67-1.06-1.17-1.75-1.52-1.18-.6-2.44-.78-3.74-.64-2.07.22-3.68 1.18-4.78 2.95-1.07 1.72-1.29 3.6-.9 5.56.34 1.74 1.21 3.16 2.69 4.17 1.46.99 3.09 1.26 4.82 1.02 1.17-.16 2.22-.59 3.08-1.42.2-.2.39-.42.59-.63.06.06.05.13.05.2.02.47.05.94.05 1.41 0 .18.04.26.25.25.44-.02.89 0 1.33 0 .62 0 .92-.31.92-.92v-11.1c0-.33-.01-.66 0-.99Zm-4.51 9.83c-1.93 1.46-5.69.98-6.33-2.5-.26-1.42-.05-2.79.95-3.89 1.14-1.25 2.6-1.51 4.18-1.08 1.54.43 2.38 1.54 2.69 3.08.07.31.08.63.09.96-.02 1.38-.45 2.58-1.58 3.44ZM155.43 30.51c.02-.15-.05-.2-.19-.19-.3.01-.6-.01-.91 0-.77.04-1.4.66-1.47 1.43-.01.14 0 .28-.07.44-.27-.32-.52-.63-.84-.89-.99-.81-2.14-1.18-3.4-1.25-2.31-.13-4.25.61-5.67 2.47-1.19 1.55-1.54 3.35-1.37 5.27.31 3.49 2.88 5.95 6.38 6.05 1.55.04 2.99-.32 4.2-1.38.27-.23.48-.5.71-.76l.12.02v1.61c0 .18.05.25.24.24.44-.01.87 0 1.31 0 .68 0 .96-.29.96-.97V30.5Zm-3.68 9.01c-1.02 1.43-2.47 1.85-4.12 1.53-1.6-.3-2.56-1.35-2.98-2.9-.11-.4-.13-.82-.14-1.12.01-1.09.24-2 .84-2.79.96-1.25 2.28-1.68 3.8-1.45 1.92.28 3.17 1.67 3.34 3.61.11 1.13-.07 2.19-.73 3.12ZM131.97 6.26c-.28.01-.56 0-.85 0-.81.02-1.46.66-1.52 1.47-.01.13.01.26-.07.41-.21-.27-.42-.52-.66-.74-1.1-.99-2.43-1.39-3.88-1.42-2.47-.04-4.43.91-5.74 3.03-1.02 1.65-1.24 3.46-.91 5.34.31 1.75 1.14 3.21 2.61 4.25 1.55 1.1 3.29 1.37 5.13 1.07 1.38-.23 2.55-.84 3.42-1.98.02-.03.05-.05.15-.03.03.51.03 1.02.02 1.52 0 .23.05.34.31.32.42-.02.85 0 1.28 0 .63 0 .92-.28.92-.91V6.48c.02-.15-.03-.22-.2-.21Zm-3.34 9.01c-.89 1.4-2.21 1.95-3.83 1.8-2.28-.21-3.53-2.07-3.55-4.06 0-1.25.31-2.37 1.22-3.27.79-.78 1.78-1.07 2.55-1.07 1.21.03 2.04.27 2.75.85 1.01.82 1.42 1.93 1.48 3.18.04.91-.13 1.79-.63 2.57ZM100.39 11.91c-.28-2.21-1.34-3.92-3.3-5.02-1.5-.84-3.12-1.06-4.8-.84-2.21.29-3.96 1.34-5.06 3.31-.86 1.53-1.04 3.19-.75 4.91.23 1.41.85 2.63 1.88 3.62 1.4 1.33 3.11 1.88 5.01 1.89.42 0 .83-.02 1.25-.08 2.19-.35 3.91-1.39 5.01-3.36.77-1.38.98-2.89.78-4.44Zm-3.41 3.01c-.78 1.64-2.43 2.32-4.04 2.16-2.2-.22-3.56-1.97-3.56-4.43.03-1.07.4-2.25 1.47-3.13 1.89-1.55 5.77-1.13 6.47 2.36.2 1.04.12 2.07-.34 3.04Z"/><path class="d" d="M45.32 11.32c-1.5 1.15-3.17 2-4.91 2.73-2.51 1.04-5.13 1.71-7.81 2.15-2.86.47-5.74.7-8.63.7-4.02-.01-7.99-.39-11.89-1.44-3.07-.83-5.97-2.05-8.65-3.78-.18-.11-.2-.19-.09-.36.34-.55.73-1.06 1.11-1.58.12-.16.2-.06.3 0 2.1 1.34 4.35 2.34 6.72 3.08 2.3.72 4.66 1.18 7.06 1.46 1.96.22 3.92.34 5.88.3 4.28-.08 8.52-.52 12.63-1.78 2.49-.76 4.84-1.82 6.95-3.36.14-.11.21-.09.31.04.38.48.74.98 1.09 1.48.11.17.08.25-.07.36ZM76.2 40.91c-.43 1.38-1.44 2.17-2.77 2.6-.8.26-1.62.34-2.46.34-1.27-.03-2.53-.15-3.72-.62-.38-.15-.74-.34-1.07-.57-.09-.06-.16-.12-.16-.25.03-.46.04-.92.08-1.38.07-.74.64-1.03 1.29-.67 1.38.77 2.86.97 4.41.77.4-.05.77-.2 1.09-.44.4-.31.59-.73.52-1.24-.06-.51-.41-.76-.85-.92-.67-.23-1.37-.27-2.06-.34-.83-.08-1.65-.2-2.43-.5-1.14-.43-1.84-1.21-2.03-2.43-.2-1.37 0-2.64.99-3.69.68-.73 1.54-1.15 2.51-1.34 1.81-.37 3.58-.23 5.32.42h.03c.69.29.78.47.57 1.2-.24.88-1.12 1.34-2.06 1.09-1.01-.27-2.02-.38-3.05-.14-.39.09-.75.27-1.03.55-.68.68-.47 1.56.44 1.85.57.18 1.17.21 1.76.26.94.06 1.88.19 2.76.56 1.26.54 1.91 1.51 2.06 2.85.08.69.07 1.37-.14 2.04Z"/><path class="d" d="M39.54 5.42c-.08.07-.18.13-.27.2-2.47 1.74-5.24 2.73-8.19 3.26-2.51.45-5.05.7-7.61.7-4.09-.02-8.09-.61-11.97-1.93-1.12-.38-2.19-.88-3.23-1.44-.19-.1-.24-.16-.05-.33.54-.47 1.14-.87 1.72-1.3.11-.08.19-.03.28 0 1.86.85 3.8 1.47 5.8 1.89 2.09.44 4.21.67 6.35.73 1.8.05 3.59 0 5.38-.18 3.45-.36 6.76-1.17 9.76-3.02.13-.08.22-.09.35 0 .57.35 1.12.74 1.66 1.14.14.1.13.19.02.29ZM31.05 29.09c-1.05.57-2.04 1.23-3.06 1.84-.47.28-1.01.21-1.52.23-1.88.08-3.76.08-5.64.03-2.13-.05-4.24-.19-6.36-.43-3.14-.35-6.23-.92-9.27-1.77-1.45-.4-2.87-.88-4.26-1.44a.695.695 0 0 1-.44-.5c-.23-.81-.33-1.64-.49-2.48.63.28 1.26.57 1.89.83 2.59 1.09 5.29 1.78 8.04 2.29 3.47.64 6.97 1.02 10.49 1.14 1.71.06 3.42.07 5.13.01 1.7-.05 3.4-.12 5.09-.3.09-.01.17-.01.26-.01.15 0 .26.06.3.21.04.15-.01.27-.14.34ZM137.38 2.91v15.68c0 .64-.29.93-.93.93-.6 0-1.21-.01-1.82 0-.21 0-.27-.05-.26-.27V4.34c0-1.02.65-1.69 1.68-1.7.36 0 .72.01 1.07 0 .23-.01.26.07.26.27ZM84.48 2.91v15.57c0 .76-.26 1.02-1.02 1.02h-1.73c-.19 0-.26-.04-.26-.25V4.18c0-.84.65-1.51 1.49-1.55.42-.01.83 0 1.25-.01.22-.01.26.07.26.27ZM31.39 1c-.62.5-1.28.76-1.97.97-1.43.42-2.9.59-4.39.64-2.28.09-4.53-.08-6.74-.64a8.37 8.37 0 0 1-1.82-.66C21.44-.34 26.37-.41 31.38 1Z"/></g></g></svg>