<svg width="261" height="59" viewBox="0 0 261 59" fill="none" xmlns="http://www.w3.org/2000/svg">
<g filter="url(#filter0_dd_7501_446986)">
<g clip-path="url(#clip0_7501_446986)">
<path d="M21.2563 51.5498C28.416 54.1968 35.2769 54.3879 41.623 50.3331C47.0366 46.4571 50.027 41.4139 49.5822 34.7109C44.9239 47.1914 35.6201 52.9992 21.2563 51.5498Z" fill="white"/>
<path d="M22.2544 40.6464C21.2791 39.672 20.3985 38.6135 19.6235 37.4844C18.4184 37.8577 17.1885 38.1522 15.9421 38.366C16.5616 39.4883 17.2884 40.5525 18.1131 41.5448V41.5448C18.8995 42.4912 19.7709 43.3691 20.7172 44.1682V44.1682C22.2573 43.9558 23.7765 43.6203 25.2588 43.1652C24.1834 42.4112 23.1781 41.5684 22.2544 40.6464Z" fill="white"/>
<path d="M42.1694 16.2678C41.1947 14.9184 40.1851 13.6422 39.1953 12.4648C39.1419 14.0833 38.9388 15.6939 38.5884 17.2776C39.5455 18.5257 40.4862 19.856 41.3745 21.2514C42.2093 22.5585 42.9756 23.905 43.6704 25.286C44.1999 23.6366 44.5645 21.9422 44.7594 20.2259C43.9447 18.8462 43.0693 17.5238 42.1694 16.2678Z" fill="white"/>
<path d="M41.3734 21.2539C40.4126 24.9463 38.6551 28.4022 36.2154 31.3966C35.465 32.3185 34.654 33.1933 33.7876 34.0155C33.2429 34.5305 32.678 35.0245 32.0928 35.4975C29.2035 37.8301 25.8581 39.5809 22.2544 40.6464C23.1784 41.5689 24.184 42.4121 25.26 43.1664C27.828 42.3784 30.2652 41.2389 32.4967 39.7829C33.5118 39.1196 34.4815 38.3939 35.3996 37.6104C35.3937 37.5958 35.3879 37.5823 35.3832 37.5677L35.4229 37.589C39.2838 34.2898 42.1347 30.0362 43.6669 25.2885C42.9729 23.9075 42.2074 22.561 41.3734 21.2539V21.2539Z" fill="white"/>
<path opacity="0.11" d="M30.2417 3.75295L30.265 3.73242L30.2417 3.75295Z" fill="white"/>
<path opacity="0.11" d="M30.2754 3.72647L30.2882 3.71484L30.2754 3.72647Z" fill="white"/>
<path opacity="0.11" d="M30.1272 3.8447L30.1447 3.83008L30.1272 3.8447Z" fill="white"/>
<path opacity="0.11" d="M30.1704 3.80979L30.1845 3.79688L30.1704 3.80979Z" fill="white"/>
<path opacity="0.11" d="M30.0852 3.87947L30.098 3.86914L30.0852 3.87947Z" fill="white"/>
<path opacity="0.11" d="M30.2952 3.71021L30.3067 3.70117L30.2952 3.71021Z" fill="white"/>
<path opacity="0.11" d="M30.2065 3.78122L30.2357 3.75586L30.2065 3.78122Z" fill="white"/>
<path opacity="0.11" d="M30.3221 3.6875L30.3093 3.69912L30.3221 3.6875Z" fill="white"/>
<path opacity="0.11" d="M22.5752 11.1675C22.6476 11.0866 22.7188 11.0056 22.7911 10.9258C22.7188 11.0056 22.6476 11.0866 22.5752 11.1675Z" fill="white"/>
<path opacity="0.11" d="M22.7937 10.922L23.0085 10.6836L22.7937 10.922Z" fill="white"/>
<path opacity="0.11" d="M30.2637 3.73365L30.2752 3.72461L30.2637 3.73365Z" fill="white"/>
<path opacity="0.11" d="M29.8213 4.0951L30.0851 3.87695C30.0127 3.93655 29.924 4.01076 29.8213 4.0951Z" fill="white"/>
<path opacity="0.11" d="M22.3535 11.419L22.5706 11.1738L22.3535 11.419Z" fill="white"/>
<path opacity="0.11" d="M30.2871 3.71673L30.2961 3.70898L30.2871 3.71673Z" fill="white"/>
<path opacity="0.11" d="M30.147 3.83033L30.1727 3.80859L30.147 3.83033Z" fill="white"/>
<path opacity="0.11" d="M30.1831 3.79862L30.2064 3.7793L30.1831 3.79862Z" fill="white"/>
<path opacity="0.11" d="M30.0969 3.87032L30.1273 3.84375L30.0969 3.87032Z" fill="white"/>
<path opacity="0.27" d="M25.6895 13.0351C26.3244 13.0771 26.9648 13.0977 27.6107 13.0969C31.1925 13.1012 34.7424 12.4474 38.0701 11.1707C37.2017 10.1924 36.3531 9.29399 35.5571 8.48438C33.2351 9.39697 30.7964 10.0047 28.3063 10.2914C27.487 11.1066 26.6034 12.0253 25.6895 13.0351Z" fill="white"/>
<path d="M25.6895 13.0351C26.3244 13.0771 26.9648 13.0977 27.6107 13.0969C31.1925 13.1012 34.7424 12.4474 38.0701 11.1707C37.2017 10.1924 36.3531 9.29399 35.5571 8.48438C33.2351 9.39697 30.7964 10.0047 28.3063 10.2914C27.487 11.1066 26.6034 12.0253 25.6895 13.0351Z" fill="white"/>
<path opacity="0.27" d="M38.084 11.1792C37.2086 10.1942 36.3553 9.28896 35.5535 8.48047C31.0236 12.7515 25.0889 15.3662 18.7724 15.8738C18.1596 16.7093 17.5573 17.5785 16.9761 18.4747C17.7021 18.5317 18.4355 18.5606 19.1763 18.5613C26.49 18.5557 33.142 15.7524 38.084 11.1792Z" fill="white"/>
<path d="M38.084 11.1792C37.2086 10.1942 36.3553 9.28896 35.5535 8.48047C31.0236 12.7515 25.0889 15.3662 18.7724 15.8738C18.1596 16.7093 17.5573 17.5785 16.9761 18.4747C17.7021 18.5317 18.4355 18.5606 19.1763 18.5613C26.49 18.5557 33.142 15.7524 38.084 11.1792Z" fill="white"/>
<path d="M22.7247 26.1198C20.7063 23.8293 18.5382 21.6652 16.2338 19.6406C15.6502 20.5908 15.104 21.5702 14.5916 22.5744C16.5188 24.3267 18.3477 26.1768 20.0705 28.1169C20.8513 28.9973 21.6497 29.943 22.4446 30.9449C23.3751 30.3451 24.268 29.6929 25.1187 28.9917C24.3191 27.9752 23.5137 27.016 22.7247 26.1198Z" fill="white"/>
<path d="M20.0704 28.1191C18.0496 29.4603 15.8563 30.5425 13.5457 31.3385C13.7046 32.4246 13.9493 33.4974 14.2775 34.5477C17.1834 33.7776 19.9421 32.5626 22.448 30.9494C21.6496 29.9453 20.8512 28.9996 20.0704 28.1191Z" fill="white"/>
<path d="M31.7532 27.9231C32.8902 26.7534 33.9472 25.5139 34.9176 24.2124C33.9289 22.6898 32.8959 21.228 31.8466 19.8359C30.913 21.1622 29.8911 22.4288 28.7874 23.6276C29.804 24.9984 30.8008 26.4321 31.7532 27.9231Z" fill="white"/>
<path d="M23.2302 10.4408C23.7835 10.4723 24.341 10.488 24.9029 10.488C26.0404 10.488 27.177 10.4223 28.3064 10.2913C31.0155 7.59253 33.0138 6.02503 33.0162 6.01828C31.3821 4.51824 30.321 3.68164 30.321 3.68164L30.3094 3.69176L30.2989 3.69963L30.2907 3.70638L30.279 3.7165L30.2685 3.72437L30.2452 3.74348L30.216 3.7671L30.1926 3.78509L30.1798 3.79634L30.1541 3.81658L30.1366 3.8312L30.1063 3.85593L30.0946 3.86493L29.8308 4.08308C27.4874 6.0597 25.2824 8.18359 23.2302 10.4408V10.4408Z" fill="white"/>
<path d="M25.6895 13.0347C26.6035 12.0227 27.487 11.1063 28.3064 10.291C27.177 10.422 26.0404 10.4877 24.9028 10.4878C24.3418 10.4878 23.7842 10.4721 23.2302 10.4406L23.0131 10.6778L22.7983 10.9162C22.726 10.9961 22.6548 11.077 22.5824 11.158V11.1636L22.3653 11.4087C22.0712 11.7438 21.7751 12.0872 21.4771 12.4388C22.8636 12.7396 24.2718 12.9388 25.6895 13.0347V13.0347Z" fill="white"/>
<path d="M20.1626 47.2453C17.5954 45.4121 15.4816 43.0537 13.9732 40.3397C12.4648 37.6257 11.5993 34.6235 11.4388 31.5488C11.2169 32.7459 11.0832 33.9566 11.0385 35.1719C10.8797 39.7462 12.3878 43.8584 15.1541 47.0294C16.0083 48.0075 16.9742 48.8898 18.0336 49.6595C19.2308 49.8084 20.4366 49.8836 21.6438 49.8844C22.6532 49.8843 23.6619 49.8328 24.6657 49.7303C23.0665 49.0791 21.5546 48.2448 20.1626 47.2453V47.2453Z" fill="white"/>
<path d="M48.8634 29.9672C48.3726 28.0014 47.6996 26.0821 46.8523 24.2324C44.826 36.8984 33.734 46.6824 20.1628 47.2412C19.7554 47.2581 19.3457 47.2671 18.9349 47.2671C17.6705 47.267 16.4076 47.1862 15.1543 47.0254V47.0254C16.0085 48.0035 16.9744 48.8858 18.0338 49.6555C19.231 49.8044 20.4368 49.8795 21.644 49.8804C22.6534 49.8802 23.6621 49.8288 24.6659 49.7263C36.2925 48.5344 45.8123 40.5473 48.8634 29.9672V29.9672Z" fill="white"/>
</g>
</g>
<g clip-path="url(#clip1_7501_446986)">
<path d="M76.4382 12.5956L83.0587 32.6151C83.3267 33.4955 83.5624 34.2304 83.766 34.8204C83.9695 35.4103 84.144 35.9107 84.2894 36.3214C84.439 36.7332 84.5666 37.077 84.6757 37.3424C84.7847 37.6079 84.8751 37.8668 84.9561 38.071C85.1836 38.6826 85.4899 39.2557 85.8658 39.7727C86.1254 40.1266 86.4422 40.4253 86.8005 40.6542C87.1048 40.8432 87.4426 40.9593 87.7913 40.9945C88.1277 41.0252 88.4704 41.0387 88.8193 41.0387L89.022 41.2156L89.1434 42.0086L89.0624 42.1858C88.8724 42.1858 88.5919 42.1652 88.2149 42.1209C87.8258 42.0754 87.4349 42.0526 87.0436 42.0528H79.183L79.1019 42.0086L79.2235 41.2156L79.3855 41.0387C80.0019 41.0671 80.6178 40.9702 81.2019 40.7529C81.6318 40.5623 81.8467 40.0402 81.8467 39.1871C81.7853 38.2074 81.5747 37.246 81.2236 36.342C80.8082 35.1235 80.289 33.5874 79.6658 31.7336L78.9805 29.6164H69.9454L69.2599 31.7336C68.6368 33.5851 68.1175 35.1213 67.7021 36.342C67.3513 37.2461 67.1407 38.2075 67.079 39.1871C67.079 40.0402 67.2939 40.5623 67.7239 40.7529C68.308 40.9697 68.9238 41.0666 69.5403 41.0387L69.7427 41.2156L69.8643 42.0086L69.7834 42.0528H62.6798C62.2947 42.0522 61.9099 42.075 61.5271 42.1209C61.2531 42.1581 60.9774 42.1798 60.7014 42.1858L60.6609 42.0086L60.742 41.2156L60.9413 41.0387C61.2933 41.0387 61.6299 41.0388 61.9508 40.9945C62.2922 40.9576 62.6225 40.8416 62.9197 40.6542C63.284 40.4277 63.6064 40.1288 63.87 39.7727C64.2451 39.2502 64.5591 38.6785 64.8047 38.071C64.8923 37.9091 64.9673 37.7394 65.0289 37.5638C65.0943 37.3732 65.2034 37.0872 65.3405 36.7026C65.4776 36.318 65.6771 35.8144 65.9076 35.1813L66.7954 32.7138C67.1568 31.6996 67.6003 30.4516 68.1258 28.97C68.6513 27.4883 69.291 25.7095 70.045 23.6334C70.394 22.6055 70.7574 21.5845 71.1355 20.5702C71.5135 19.556 71.8635 18.6085 72.1854 17.7281C72.497 16.8432 72.8085 16.0672 73.0515 15.3899C73.2945 14.7126 73.4908 14.2122 73.5967 13.8889L75.9801 12.5684L76.4382 12.5956ZM70.6245 27.7209H78.3355L74.5002 16.3873L70.6245 27.7209Z" fill="white"/>
<path d="M95.8575 25.4264C96.5465 24.1736 97.4675 23.0919 98.5617 22.251C99.6647 21.4001 101.037 20.9746 102.677 20.9746C103.442 20.9725 104.204 21.087 104.939 21.315C105.686 21.5462 106.389 21.9196 107.017 22.4178C107.66 22.93 108.197 23.5838 108.594 24.3373C109.031 25.1886 109.311 26.1253 109.42 27.0943C109.501 27.8567 109.547 28.6664 109.563 29.5173C109.578 30.3682 109.582 31.2192 109.582 32.0769C109.582 33.1365 109.589 34.2017 109.603 35.2727C109.618 36.3436 109.624 37.4102 109.622 38.4721C109.65 38.97 109.718 39.4642 109.825 39.9491C109.882 40.2094 110.008 40.4459 110.186 40.6298C110.467 40.8813 110.814 41.0282 111.177 41.0486C111.594 41.0929 112.018 41.1131 112.448 41.1131L112.569 41.2903L112.65 41.9062L112.569 42.0833C112.063 41.9905 111.55 41.9459 111.036 41.9504H109.379C108.357 41.9504 107.429 41.9798 106.594 42.0388L106.313 41.5997C106.437 41.109 106.518 40.6066 106.553 40.099C106.609 39.483 106.647 38.9384 106.675 38.4688C106.729 37.2322 106.769 36.0192 106.796 34.8303C106.823 33.6413 106.837 32.6486 106.837 31.8522C106.837 31.1715 106.817 30.4365 106.778 29.6469C106.748 28.9485 106.66 28.2543 106.513 27.5739C106.239 26.1989 105.686 25.1712 104.855 24.4905C104.016 23.8093 102.994 23.4504 101.948 23.4694C101.085 23.4625 100.232 23.6732 99.456 24.0853C98.0743 24.8132 96.943 26.0062 96.2283 27.4888C95.9543 28.0088 95.7953 28.5916 95.764 29.1906V35.7596C95.764 36.1714 95.764 36.5252 95.7827 36.8179C95.8014 37.1106 95.817 37.3864 95.8451 37.6348C95.8731 37.8833 95.898 38.1554 95.926 38.4515C95.9583 38.9182 96.0187 39.3821 96.1067 39.8401C96.1687 40.1405 96.3172 40.4115 96.5304 40.6129C96.7909 40.8382 97.1061 40.9755 97.4371 41.0078C97.8324 41.0681 98.2312 41.0976 98.6304 41.0962L98.8298 41.3175L98.9107 41.8892L98.8298 42.066C98.6429 42.066 98.3593 42.0661 97.9823 42.0218C97.6053 41.9776 97.2034 41.9776 96.7735 41.9776H89.9909L89.9504 41.8892L89.9909 41.273L90.1529 41.0962C90.5829 41.0962 91.0066 41.0756 91.4241 41.0313C91.7706 41.0142 92.1009 40.8664 92.3588 40.6129C92.5751 40.4045 92.7238 40.1251 92.7824 39.8165C92.8676 39.367 92.9289 38.9124 92.9662 38.4551C92.9911 37.9854 93.0193 37.5053 93.0473 37.0186C93.0753 36.5319 93.0847 35.7628 93.0847 34.7043V27.7172C93.0847 27.2883 93.0847 26.9137 93.066 26.5904C93.0473 26.2671 93.0378 25.9744 93.0254 25.709C93.0129 25.4435 92.9911 25.1644 92.9662 24.8717C92.9175 24.575 92.836 24.2857 92.7233 24.0105C92.6525 23.827 92.5569 23.6559 92.4397 23.5033C92.1877 23.1605 91.8279 22.9324 91.4303 22.8635C91.0183 22.7908 90.6015 22.7546 90.1841 22.7548L90.0221 22.5744V21.9482L90.1841 21.7846H92.6454C93.2531 21.7906 93.8604 21.7453 94.4618 21.6487L95.8762 21.4207L96.1162 21.7846C95.9587 22.2974 95.8643 22.8308 95.8356 23.3707C95.7796 24.0514 95.7392 24.6879 95.7142 25.3108L95.8575 25.4264Z" fill="white"/>
<path d="M129.605 30.2344L129.2 32.5251H115.959L116.324 30.2344H129.605Z" fill="white"/>
<path d="M160.206 12.9891L160.125 13.7652L159.923 13.9387C159.512 13.9382 159.101 13.961 158.692 14.0068C158.361 14.025 158.043 14.1557 157.782 14.3811C157.551 14.611 157.354 14.8785 157.197 15.1741C156.976 15.7165 156.859 16.3029 156.854 16.8965C156.829 17.3083 156.807 17.6926 156.795 18.0432C156.782 18.3937 156.767 18.8093 156.754 19.2789C156.742 19.7486 156.732 20.3237 156.732 21.001V31.3713C156.732 33.0186 156.74 34.3723 156.754 35.4319C156.754 36.4938 156.779 37.3957 156.795 38.1547C156.81 38.9137 156.835 39.5738 156.876 40.1626C156.916 40.7514 156.963 41.3981 157.016 42.1026L156.704 42.2353H154.212L153.807 41.7045L139.438 18.1113C139.438 18.4074 139.438 18.7001 139.416 18.9928C139.394 19.2855 139.398 19.6499 139.398 20.0753V33.1276C139.398 33.7016 139.404 34.2972 139.416 34.9144C139.416 35.5304 139.444 36.1261 139.457 36.7013C139.469 37.2764 139.491 37.7223 139.519 38.0899C139.534 38.6603 139.651 39.2221 139.862 39.7441C140.016 40.0854 140.244 40.3806 140.525 40.605C140.78 40.7916 141.071 40.9084 141.376 40.9453C141.817 41.012 142.261 41.0418 142.706 41.0341L142.909 41.2109L143.03 42.0039L142.949 42.0481H133.462L133.381 42.0039L133.503 41.2109L133.705 41.0341C134.116 41.0386 134.527 41.0169 134.936 40.9693C135.262 40.9288 135.574 40.8002 135.843 40.595C136.076 40.392 136.274 40.1452 136.428 39.8664C136.686 39.31 136.831 38.6994 136.852 38.0763C136.88 37.8721 136.899 37.6305 136.914 37.348C136.93 37.0656 136.933 36.7252 136.933 36.327V19.2447C136.933 18.7444 136.933 18.319 136.914 17.9651C136.896 17.6111 136.88 17.2604 136.852 16.9065C136.817 16.3655 136.694 15.8356 136.491 15.341C136.344 14.9748 136.122 14.65 135.843 14.3914C135.579 14.1749 135.265 14.0452 134.936 14.0171C134.527 13.9698 134.116 13.947 133.705 13.949L133.503 13.7752L133.381 12.9994L133.462 12.8223C133.649 12.8223 133.927 12.8224 134.291 12.8598L135.4 12.9346L136.509 13.0061C136.874 13.0333 137.148 13.0436 137.338 13.0436H139.659C139.975 13.0527 140.291 13.0081 140.594 12.911L140.796 13.0436C140.972 13.6313 141.195 14.2007 141.463 14.7454C141.8 15.4669 142.202 16.2666 142.675 17.1481C143.149 18.0296 143.656 18.9724 144.208 19.9696C144.759 20.9668 145.317 21.9574 145.884 22.9274C147.928 26.5147 149.711 29.4395 151.233 31.7017C152.756 33.9639 153.731 35.4387 154.159 36.1262C154.159 35.922 154.159 35.7279 154.181 35.5509C154.203 35.3739 154.2 35.1699 154.2 34.935V21.0724C154.2 20.369 154.193 19.7668 154.181 19.2653C154.165 18.765 154.153 18.3359 154.14 17.9853C154.128 17.6348 154.106 17.2774 154.078 16.9234C154.077 16.3271 153.953 15.7389 153.717 15.2014C153.549 14.9076 153.344 14.6407 153.109 14.4083C152.836 14.1898 152.512 14.0601 152.174 14.0341C151.76 13.9877 151.344 13.9649 150.928 13.966L150.766 13.7925L150.645 13.0164L150.726 12.8392C150.913 12.8392 151.184 12.8393 151.533 12.8768L152.601 12.9516L153.673 13.023C154.022 13.0502 154.296 13.0606 154.48 13.0606H157.184C157.533 13.0606 157.898 13.0606 158.275 13.0164L159.365 12.928C159.714 12.9007 159.988 12.8698 160.172 12.8392L160.206 12.9891Z" fill="white"/>
<path d="M173.93 41.6136C174.032 41.1353 174.094 40.6479 174.114 40.1572C174.155 39.5105 174.214 38.9079 174.295 38.3497L174.254 38.2171C173.885 38.7735 173.468 39.2899 173.008 39.759C172.519 40.2694 171.985 40.7254 171.413 41.1204C170.828 41.5189 170.2 41.8365 169.544 42.0663C168.872 42.2993 168.17 42.4142 167.466 42.4067C166.701 42.4224 165.943 42.2553 165.244 41.9168C164.629 41.6175 164.079 41.1789 163.63 40.6301C163.195 40.0869 162.865 39.4524 162.661 38.7652C162.449 38.0485 162.344 37.2991 162.35 36.546C162.327 35.5393 162.565 34.5462 163.035 33.6802C163.494 32.8656 164.115 32.1744 164.852 31.6584C165.629 31.1487 166.468 30.7605 167.344 30.5047C168.257 30.2179 169.188 30.003 170.129 29.8616C170.939 29.7357 171.755 29.6687 172.572 29.6609H174.591C174.578 28.7927 174.524 27.9256 174.429 27.0637C174.372 26.5285 174.268 26.0008 174.117 25.4879C173.86 24.6485 173.309 23.9546 172.585 23.5582C171.765 23.1357 170.867 22.9306 169.961 22.9592C169.495 22.9628 169.029 23.006 168.569 23.0885C168.078 23.175 167.602 23.3377 167.154 23.5718C166.709 23.8061 166.317 24.1443 166.004 24.5623C165.665 25.0345 165.467 25.6097 165.437 26.2095L165.275 26.3424H164.362L164.001 23.1294L164.123 22.8605C164.364 22.6021 164.653 22.4027 164.97 22.2752C165.463 22.0409 165.969 21.8385 166.484 21.6693C167.12 21.4609 167.767 21.296 168.422 21.1757C169.122 21.0418 169.83 20.9746 170.541 20.975C171.456 20.9666 172.368 21.1079 173.245 21.3937C174.036 21.6469 174.77 22.0741 175.404 22.6495C176.02 23.2204 176.51 23.9361 176.837 24.7427C177.203 25.6682 177.383 26.6687 177.364 27.6766C177.364 28.9121 177.364 30.0078 177.342 30.9608C177.32 31.9137 177.308 32.7987 177.283 33.6088C177.258 34.4188 177.236 35.2118 177.22 35.9912C177.205 36.7706 177.202 37.5978 177.202 38.4827C177.23 38.9806 177.297 39.4748 177.404 39.9598C177.465 40.2294 177.606 40.4692 177.806 40.6405C178.068 40.8969 178.405 41.0448 178.756 41.0589C179.174 41.1032 179.598 41.1237 180.027 41.1237L180.19 41.3005L180.23 41.9168L180.19 42.0936C179.668 42.002 179.141 41.9577 178.613 41.961H176.959C175.937 41.961 175.008 41.9904 174.173 42.0494L173.93 41.6136ZM173.93 36.8487C174.011 36.7024 174.099 36.5255 174.195 36.3213C174.296 36.0842 174.357 35.8295 174.376 35.5691L174.578 31.1615H174.214C173.134 31.1611 172.056 31.227 170.983 31.3589C169.993 31.4691 169.022 31.7293 168.098 32.1317C167.301 32.4747 166.589 33.0181 166.02 33.7178C165.464 34.446 165.175 35.3737 165.21 36.3213C165.187 36.8085 165.255 37.2958 165.408 37.7541C165.561 38.2125 165.797 38.6326 166.101 38.9896C166.401 39.3196 166.76 39.5782 167.155 39.7487C167.551 39.9192 167.975 39.9979 168.4 39.98C168.977 39.9788 169.549 39.8741 170.095 39.6703C170.652 39.4702 171.187 39.2042 171.69 38.8772C172.158 38.5749 172.604 38.2336 173.024 37.8562C173.363 37.5628 173.668 37.2244 173.93 36.8487Z" fill="white"/>
<path d="M197.83 41.5683C197.936 41.0893 198.01 40.6027 198.051 40.1119C198.12 39.4652 198.179 38.8934 198.235 38.4101L198.194 38.233C197.47 39.4358 196.521 40.4579 195.409 41.2316C194.272 42.0064 192.954 42.4045 191.614 42.3783C190.244 42.4148 188.885 42.1135 187.636 41.4969C186.572 40.9524 185.634 40.1532 184.891 39.1586C184.17 38.1704 183.628 37.0408 183.296 35.8303C182.945 34.5646 182.768 33.2487 182.772 31.9262C182.727 30.1786 183.016 28.44 183.62 26.821C184.11 25.5368 184.839 24.3778 185.76 23.4175C186.579 22.5777 187.547 21.9312 188.605 21.5183C189.557 21.14 190.561 20.94 191.574 20.9263C192.862 20.9249 194.133 21.2485 195.288 21.8723C196.559 22.5958 197.611 23.7074 198.316 25.0717L198.394 24.8949C198.342 24.2142 198.316 23.5594 198.316 22.9309V17.9041C198.316 17.0668 198.316 16.3384 198.294 15.7224C198.272 15.1063 198.266 14.5584 198.254 14.0888C198.241 13.6191 198.219 13.1492 198.194 12.6795C198.174 12.3853 198.098 12.099 197.97 11.8389C197.877 11.656 197.773 11.4799 197.659 11.3115C197.394 10.9894 197.039 10.7716 196.649 10.6919C196.238 10.6055 195.821 10.5622 195.403 10.5626L195.241 10.3821V9.80015L195.403 9.5891H197.864C198.472 9.59765 199.08 9.55092 199.681 9.4495L201.095 9.21484L201.335 9.61303C201.262 9.81831 201.215 10.0336 201.195 10.2528C201.152 10.5824 201.125 10.9141 201.114 11.2466C201.114 11.587 201.086 11.9273 201.073 12.2677C201.061 12.608 201.055 12.8429 201.055 13.0165C201.055 13.4896 201.055 13.9322 201.033 14.344C201.011 14.7558 201.014 15.239 201.014 15.7972C201.014 16.3553 201.014 17.036 200.992 17.8393C200.97 18.6425 200.973 19.6499 200.973 20.9024V30.5206C200.973 31.7595 200.98 32.7805 200.992 33.5837C200.992 34.3802 201.02 35.0575 201.033 35.6258C201.045 36.1942 201.061 36.6708 201.073 37.0826C201.086 37.4945 201.107 37.9643 201.136 38.4952C201.163 38.993 201.229 39.4872 201.335 39.9723C201.392 40.2335 201.519 40.4703 201.699 40.653C201.973 40.9021 202.313 41.0486 202.668 41.0714C203.083 41.1156 203.499 41.1374 203.915 41.1363L204.074 41.3131L204.155 41.9293L204.074 42.1061C203.559 42.0146 203.037 41.9704 202.516 41.9735H200.84C199.843 41.9735 198.928 42.0029 198.095 42.0619L197.83 41.5683ZM185.841 31.8208C185.84 32.8188 185.962 33.8124 186.203 34.775C186.426 35.6977 186.795 36.5708 187.293 37.3549C187.801 38.1545 188.485 38.8017 189.282 39.2371C190.079 39.6724 190.964 39.882 191.854 39.8463C192.781 39.8633 193.698 39.6526 194.54 39.2301C195.28 38.8589 195.955 38.3514 196.537 37.7294C197.045 37.1867 197.475 36.5622 197.811 35.8778C198.081 35.3627 198.253 34.793 198.316 34.2033V29.3058C198.222 28.7153 198.052 28.1424 197.811 27.604C197.501 26.8866 197.093 26.2252 196.599 25.6434C196.045 24.9863 195.389 24.4415 194.661 24.0337C193.818 23.5656 192.881 23.3318 191.935 23.353C190.971 23.3224 190.017 23.5737 189.172 24.0812C188.414 24.5546 187.765 25.2115 187.274 26.001C186.762 26.8283 186.392 27.7511 186.184 28.7238C185.955 29.7371 185.84 30.7771 185.841 31.8208V31.8208Z" fill="white"/>
<path d="M218.137 41.6137C218.238 41.1351 218.299 40.6478 218.318 40.1572C218.359 39.5105 218.418 38.9079 218.499 38.3498L218.458 38.2171C218.088 38.7729 217.671 39.2892 217.212 39.759C216.722 40.2678 216.187 40.7237 215.617 41.1204C215.031 41.5176 214.403 41.8351 213.747 42.0664C213.075 42.2993 212.372 42.4142 211.666 42.4067C210.903 42.4223 210.146 42.2552 209.448 41.9168C208.832 41.6176 208.281 41.179 207.831 40.6302C207.396 40.0867 207.068 39.4523 206.865 38.7652C206.652 38.0489 206.547 37.2992 206.554 36.546C206.531 35.5394 206.769 34.5462 207.239 33.6803C207.698 32.8656 208.319 32.1744 209.056 31.6584C209.833 31.1494 210.672 30.7612 211.548 30.5048C212.461 30.2186 213.392 30.0038 214.333 29.8616C215.143 29.7357 215.958 29.6687 216.776 29.6609H218.795C218.782 28.7928 218.728 27.9257 218.633 27.0637C218.578 26.5283 218.473 26.0004 218.321 25.4879C218.064 24.6485 217.513 23.9546 216.788 23.5582C215.969 23.1357 215.07 22.9306 214.165 22.9592C213.698 22.9631 213.233 23.0063 212.772 23.0885C212.282 23.1755 211.806 23.3382 211.358 23.5718C210.914 23.8076 210.522 24.1455 210.208 24.5623C209.868 25.034 209.671 25.6097 209.644 26.2095L209.482 26.3425H208.594L208.23 23.1294L208.351 22.8605C208.593 22.6029 208.882 22.4036 209.199 22.2752C209.692 22.0409 210.198 21.8386 210.713 21.6693C211.349 21.4613 211.996 21.2964 212.651 21.1757C213.35 21.0419 214.059 20.9748 214.769 20.975C215.685 20.9664 216.597 21.1077 217.474 21.3938C218.265 21.6476 219.001 22.0748 219.636 22.6495C220.25 23.2223 220.739 23.9375 221.069 24.7428C221.434 25.6685 221.612 26.669 221.592 27.6766C221.592 28.9109 221.586 30.0055 221.574 30.9608C221.558 31.9172 221.54 32.7988 221.512 33.6088C221.483 34.4188 221.465 35.2118 221.452 35.9912C221.44 36.7706 221.43 37.5978 221.43 38.4827C221.458 38.9806 221.526 39.4748 221.633 39.9598C221.693 40.2304 221.836 40.4705 222.038 40.6405C222.296 40.894 222.626 41.0418 222.973 41.0589C223.39 41.1032 223.814 41.1237 224.244 41.1237L224.406 41.3006L224.446 41.9168L224.406 42.0936C223.886 42.002 223.359 41.9577 222.832 41.961H221.175C220.153 41.961 219.225 41.9904 218.39 42.0494L218.137 41.6137ZM218.137 36.8488C218.218 36.7024 218.302 36.5255 218.399 36.3213C218.5 36.0842 218.561 35.8296 218.58 35.5691L218.782 31.1615H218.418C217.339 31.1611 216.262 31.2271 215.19 31.359C214.199 31.4687 213.227 31.7289 212.302 32.1317C211.505 32.4755 210.793 33.0188 210.224 33.7178C209.669 34.4465 209.381 35.3742 209.417 36.3213C209.395 36.8083 209.462 37.2953 209.614 37.7535C209.767 38.2117 210.002 38.6319 210.305 38.9896C210.605 39.3193 210.964 39.5776 211.36 39.7481C211.755 39.9185 212.179 39.9975 212.604 39.9801C213.182 39.9787 213.755 39.874 214.302 39.6703C214.858 39.4702 215.391 39.2042 215.894 38.8772C216.363 38.5758 216.808 38.2344 217.228 37.8562C217.567 37.5619 217.873 37.2236 218.137 36.8488V36.8488Z" fill="white"/>
<path d="M238.158 41.6136C238.26 41.1353 238.322 40.6479 238.342 40.1572C238.382 39.5105 238.441 38.9079 238.522 38.3497L238.482 38.2171C238.113 38.7735 237.695 39.2899 237.236 39.759C236.747 40.2685 236.214 40.7245 235.644 41.1204C235.058 41.5176 234.43 41.8351 233.774 42.0663C233.101 42.299 232.399 42.4139 231.693 42.4067C230.93 42.4228 230.173 42.2556 229.475 41.9168C228.858 41.6185 228.307 41.1798 227.858 40.6302C227.422 40.0869 227.092 39.4524 226.889 38.7652C226.677 38.0485 226.572 37.2991 226.577 36.546C226.555 35.5393 226.793 34.5462 227.263 33.6802C227.721 32.8656 228.342 32.1744 229.079 31.6584C229.857 31.1487 230.696 30.7605 231.572 30.5047C232.485 30.2179 233.416 30.003 234.357 29.8616C235.166 29.7357 235.982 29.6687 236.8 29.6609H238.818C238.806 28.7927 238.752 27.9256 238.656 27.0637C238.6 26.5286 238.496 26.0008 238.345 25.4879C238.088 24.6485 237.537 23.9546 236.812 23.5582C235.993 23.1357 235.094 22.9306 234.189 22.9592C233.722 22.9628 233.256 23.006 232.796 23.0885C232.306 23.1755 231.83 23.3382 231.382 23.5718C230.937 23.807 230.545 24.145 230.232 24.5623C229.892 25.0345 229.694 25.6097 229.665 26.2095L229.506 26.3424H228.618L228.232 23.1294L228.353 22.8605C228.595 22.6029 228.884 22.4036 229.201 22.2752C229.694 22.0409 230.2 21.8385 230.715 21.6693C231.351 21.4609 231.998 21.296 232.653 21.1757C233.352 21.0419 234.061 20.9748 234.771 20.975C235.687 20.9666 236.598 21.1079 237.476 21.3937C238.266 21.6469 239.001 22.0741 239.635 22.6495C240.251 23.2204 240.741 23.9361 241.068 24.7427C241.435 25.6677 241.615 26.6686 241.594 27.6766C241.594 28.9109 241.587 30.0055 241.573 30.9608C241.573 31.9171 241.538 32.7987 241.513 33.6088C241.488 34.4188 241.467 35.2118 241.451 35.9912C241.436 36.7706 241.432 37.5978 241.432 38.4827C241.46 38.9806 241.528 39.4748 241.635 39.9598C241.695 40.2294 241.837 40.4692 242.037 40.6405C242.299 40.8969 242.635 41.0448 242.987 41.0589C243.404 41.1032 243.828 41.1237 244.258 41.1237L244.42 41.3005L244.461 41.9168L244.42 42.0936C243.9 42.0021 243.374 41.9578 242.847 41.961H241.189C240.167 41.961 239.239 41.9904 238.404 42.0494L238.158 41.6136ZM238.158 36.8487C238.239 36.7024 238.326 36.5255 238.423 36.3213C238.523 36.0842 238.584 35.8295 238.603 35.5691L238.806 31.1615H238.441C237.363 31.1611 236.285 31.227 235.214 31.3589C234.223 31.4687 233.251 31.7289 232.326 32.1317C231.529 32.4747 230.817 33.0181 230.248 33.7178C229.693 34.4465 229.405 35.3741 229.441 36.3213C229.418 36.8082 229.486 37.2952 229.638 37.7535C229.791 38.2117 230.025 38.6319 230.329 38.9896C230.628 39.3192 230.987 39.5776 231.383 39.748C231.779 39.9185 232.203 39.9975 232.628 39.98C233.204 39.9788 233.777 39.8741 234.323 39.6703C234.879 39.4702 235.414 39.2042 235.918 38.8772C236.386 38.5758 236.832 38.2344 237.251 37.8562C237.591 37.5628 237.895 37.2244 238.158 36.8487Z" fill="white"/>
</g>
<defs>
<filter id="filter0_dd_7501_446986" x="-3" y="-2" width="64.8169" height="65" filterUnits="userSpaceOnUse" color-interpolation-filters="sRGB">
<feFlood flood-opacity="0" result="BackgroundImageFix"/>
<feColorMatrix in="SourceAlpha" type="matrix" values="0 0 0 0 0 0 0 0 0 0 0 0 0 0 0 0 0 0 127 0" result="hardAlpha"/>
<feOffset dy="1"/>
<feGaussianBlur stdDeviation="1"/>
<feColorMatrix type="matrix" values="0 0 0 0 0.0627451 0 0 0 0 0.0941176 0 0 0 0 0.156863 0 0 0 0.06 0"/>
<feBlend mode="normal" in2="BackgroundImageFix" result="effect1_dropShadow_7501_446986"/>
<feColorMatrix in="SourceAlpha" type="matrix" values="0 0 0 0 0 0 0 0 0 0 0 0 0 0 0 0 0 0 127 0" result="hardAlpha"/>
<feOffset dy="1"/>
<feGaussianBlur stdDeviation="1.5"/>
<feColorMatrix type="matrix" values="0 0 0 0 0.0627451 0 0 0 0 0.0941176 0 0 0 0 0.156863 0 0 0 0.1 0"/>
<feBlend mode="normal" in2="effect1_dropShadow_7501_446986" result="effect2_dropShadow_7501_446986"/>
<feBlend mode="normal" in="SourceGraphic" in2="effect2_dropShadow_7501_446986" result="shape"/>
</filter>
<clipPath id="clip0_7501_446986">
<rect width="38.5986" height="49.7812" fill="white" transform="translate(11.0281 3.6875)"/>
</clipPath>
<clipPath id="clip1_7501_446986">
<rect width="183.803" height="33.1875" fill="white" transform="translate(60.6548 9.21875)"/>
</clipPath>
</defs>
</svg>
