<svg width="142" height="33" fill="none" xmlns="http://www.w3.org/2000/svg"><g filter="url(#a)"><g clip-path="url(#b)"><path d="M11.565 27.96c3.895 1.435 7.628 1.538 11.08-.66 2.946-2.103 4.573-4.838 4.331-8.474-2.534 6.77-7.596 9.92-15.411 9.133Z" fill="#2E77A0"/><path d="M12.108 22.045a12.127 12.127 0 0 1-1.431-1.715c-.656.203-1.325.362-2.003.478.337.609.732 1.186 1.18 1.724.429.514.903.99 1.418 1.423a15.799 15.799 0 0 0 2.47-.544 12.333 12.333 0 0 1-1.634-1.366ZM22.943 8.823a35.768 35.768 0 0 0-1.618-2.062c-.03.878-.14 1.751-.33 2.61.52.677 1.032 1.399 1.515 2.155.454.71.871 1.44 1.25 2.189.287-.895.486-1.814.592-2.745a29.12 29.12 0 0 0-1.41-2.147Z" fill="#32BCE2"/><path d="M22.51 11.527a14.47 14.47 0 0 1-2.807 5.502 15.14 15.14 0 0 1-2.243 2.224 15.547 15.547 0 0 1-5.352 2.792c.502.5 1.05.958 1.635 1.367a15.453 15.453 0 0 0 5.516-3.013l-.008-.024.021.012a14.74 14.74 0 0 0 4.485-6.671 24.634 24.634 0 0 0-1.247-2.189Z" fill="#2E77A0"/><path opacity=".11" d="m16.453 2.036.013-.012-.013.012ZM16.472 2.021l.007-.006-.007.006ZM16.391 2.085l.01-.008-.01.008ZM16.415 2.067l.007-.007-.007.007ZM16.368 2.104l.007-.005-.007.005ZM16.482 2.012l.007-.005-.007.005ZM16.434 2.05l.016-.013-.016.014ZM16.497 2l-.007.006.007-.006ZM12.283 6.057l.117-.131-.117.13ZM12.401 5.923l.117-.13-.117.13ZM16.465 2.025l.007-.004-.007.004ZM16.225 2.222l.143-.118-.143.118ZM12.162 6.193l.118-.133-.118.133ZM16.478 2.016l.005-.004-.005.004ZM16.402 2.077l.014-.012-.014.012ZM16.422 2.06l.012-.01-.012.01ZM16.375 2.1l.016-.015-.016.014Z" fill="#262626"/><path opacity=".27" d="M13.977 7.07c.345.023.694.034 1.045.033 1.949.003 3.88-.352 5.69-1.044a39.174 39.174 0 0 0-1.367-1.457c-1.263.495-2.59.824-3.944.98-.446.442-.927.94-1.424 1.488Z" fill="#262626"/><path d="M13.977 7.07c.345.023.694.034 1.045.033 1.949.003 3.88-.352 5.69-1.044a39.174 39.174 0 0 0-1.367-1.457c-1.263.495-2.59.824-3.944.98-.446.442-.927.94-1.424 1.488Z" fill="#2E77A0"/><path opacity=".27" d="M20.72 6.063A36.868 36.868 0 0 0 19.343 4.6c-2.464 2.316-5.693 3.734-9.13 4.01-.333.453-.66.924-.977 1.41.395.031.794.047 1.197.047A15.143 15.143 0 0 0 20.72 6.063Z" fill="#262626"/><path d="M20.72 6.063A36.868 36.868 0 0 0 19.343 4.6c-2.464 2.316-5.693 3.734-9.13 4.01-.333.453-.66.924-.977 1.41.395.031.794.047 1.197.047A15.143 15.143 0 0 0 20.72 6.063ZM12.364 14.167a39.072 39.072 0 0 0-3.532-3.514 23.1 23.1 0 0 0-.893 1.591 39.677 39.677 0 0 1 2.98 3.007c.425.477.86.99 1.292 1.533.506-.325.992-.679 1.455-1.059a36.626 36.626 0 0 0-1.302-1.558Z" fill="#32BCE2"/><path d="M10.92 15.251a15.637 15.637 0 0 1-3.55 1.746c.086.59.22 1.171.398 1.74a15.618 15.618 0 0 0 4.445-1.951 37.326 37.326 0 0 0-1.293-1.535Z" fill="#2E77A0"/><path d="M17.276 15.145a20.295 20.295 0 0 0 1.721-2.013 41.505 41.505 0 0 0-1.67-2.373 20.23 20.23 0 0 1-1.665 2.056 40.653 40.653 0 0 1 1.614 2.33ZM12.639 5.663a16.06 16.06 0 0 0 2.761-.081c1.474-1.464 2.562-2.314 2.563-2.318-.89-.813-1.466-1.267-1.466-1.267l-.007.006-.005.004-.005.003-.006.006-.006.004-.013.01-.016.013-.012.01-.007.006-.014.011-.01.008-.016.014-.007.004-.143.119a37.686 37.686 0 0 0-3.591 3.448Z" fill="#32BCE2"/><path d="M13.977 7.07c.497-.549.978-1.046 1.423-1.488a16.13 16.13 0 0 1-2.761.081l-.118.129-.117.13c-.04.042-.078.086-.118.13v.003l-.118.133c-.16.182-.321.368-.483.559a15.9 15.9 0 0 0 2.292.323Z" fill="#32BCE2"/><path d="M10.97 25.625a11.448 11.448 0 0 1-3.368-3.746 10.964 10.964 0 0 1-1.378-4.768c-.121.65-.194 1.306-.218 1.965-.087 2.481.734 4.712 2.239 6.432a9.46 9.46 0 0 0 1.566 1.426 16.055 16.055 0 0 0 3.609.038 11.897 11.897 0 0 1-2.45-1.347Z" fill="#2E77A0"/><path d="M26.585 16.254a17.812 17.812 0 0 0-1.095-3.11c-1.102 6.87-7.137 12.176-14.52 12.479a16.111 16.111 0 0 1-2.725-.117c.465.53.99 1.009 1.567 1.426a16.035 16.035 0 0 0 3.608.039c6.325-.647 11.505-4.979 13.165-10.717Z" fill="#32BCE2"/></g></g><g clip-path="url(#c)" fill="#1D485B"><path d="M41.587 8.831 45.19 19.69c.146.478.274.876.385 1.196.11.32.206.592.285.814.081.224.15.41.21.554.06.144.108.285.152.395.124.332.29.643.495.923.142.192.314.354.509.478.166.103.35.166.539.185.183.017.37.024.56.024l.11.096.066.43-.044.096c-.104 0-.256-.011-.462-.035a5.476 5.476 0 0 0-.637-.037h-4.276l-.045-.024.067-.43.088-.096c.335.015.67-.037.988-.155.234-.103.35-.387.35-.85a5.143 5.143 0 0 0-.338-1.542c-.226-.661-.509-1.494-.848-2.5l-.373-1.148h-4.915l-.373 1.148a810.012 810.012 0 0 1-.848 2.5 5.153 5.153 0 0 0-.339 1.543c0 .462.117.746.351.849.318.117.653.17.988.155l.11.096.067.43-.044.024h-3.865c-.21 0-.419.012-.627.037-.15.02-.3.032-.45.035l-.022-.096.044-.43.109-.096c.191 0 .375 0 .55-.024.185-.02.365-.083.526-.185.199-.122.374-.285.517-.478.204-.283.375-.593.509-.923.048-.087.088-.18.122-.275.035-.103.095-.258.17-.467.074-.208.183-.482.308-.825l.483-1.338.724-2.03c.286-.804.634-1.77 1.044-2.895.19-.558.388-1.111.593-1.662.206-.55.396-1.064.572-1.541.169-.48.338-.9.47-1.268.133-.368.24-.639.297-.814l1.297-.717.25.015Zm-3.163 8.204h4.196l-2.087-6.147-2.109 6.147ZM52.153 15.79a5.528 5.528 0 0 1 1.47-1.722c.6-.461 1.347-.692 2.24-.692.416-.001.83.061 1.23.185.407.125.79.328 1.131.598.35.277.642.632.858 1.04.238.463.39.97.45 1.496.043.414.069.853.077 1.314.008.462.01.923.01 1.389 0 .574.004 1.152.012 1.733.008.58.011 1.16.01 1.735.016.27.052.538.11.801.032.141.1.27.197.37a.884.884 0 0 0 .54.227c.226.024.457.035.69.035l.067.096.044.334-.044.096a4.415 4.415 0 0 0-.834-.072h-.902c-.556 0-1.061.016-1.515.048l-.153-.238c.068-.267.111-.54.13-.814.031-.335.052-.63.067-.885a93.982 93.982 0 0 0 .088-3.588c0-.37-.01-.768-.032-1.196a6.619 6.619 0 0 0-.144-1.125c-.15-.745-.45-1.303-.902-1.672a2.441 2.441 0 0 0-1.582-.554c-.47-.004-.933.11-1.356.334a4.072 4.072 0 0 0-1.756 1.846 2.23 2.23 0 0 0-.252.923v3.563c0 .223 0 .415.01.574.01.159.018.308.034.443.015.135.029.282.044.443.017.253.05.505.098.753.034.163.115.31.23.42a.886.886 0 0 0 .494.213c.215.033.432.05.65.048l.108.12.044.31-.044.096c-.102 0-.256 0-.462-.024-.205-.024-.423-.024-.657-.024h-3.69l-.022-.047.022-.335.088-.096c.234 0 .464-.01.691-.035a.807.807 0 0 0 .739-.659c.047-.244.08-.49.1-.738l.045-.78c.015-.263.02-.68.02-1.254v-3.79c0-.233 0-.436-.01-.611s-.016-.334-.022-.478a12.234 12.234 0 0 0-.032-.454 2.147 2.147 0 0 0-.133-.467 1.1 1.1 0 0 0-.154-.275.868.868 0 0 0-.55-.348 3.897 3.897 0 0 0-.677-.059l-.088-.097v-.34l.088-.089h1.339c.33.004.661-.021.988-.073l.77-.124.13.197a3.572 3.572 0 0 0-.152.86c-.03.37-.053.715-.066 1.053l.078.063ZM70.513 18.398l-.22 1.243H63.09l.198-1.243h7.226ZM87.162 9.046l-.044.42-.11.095c-.224 0-.447.012-.67.037a.826.826 0 0 0-.494.203c-.126.124-.234.27-.32.43-.12.294-.183.612-.186.934-.013.223-.025.432-.032.622a35.029 35.029 0 0 0-.034 1.604v5.625c0 .893.004 1.627.012 2.202 0 .576.014 1.065.022 1.477.009.411.022.77.044 1.089.022.32.048.67.077 1.052l-.17.072h-1.356l-.22-.288-7.818-12.796c0 .16 0 .319-.012.478-.012.159-.01.356-.01.587v7.08c0 .31.003.633.01.968 0 .334.016.657.022.97.007.311.019.553.034.753.008.309.072.614.187.897.084.185.208.345.36.467a.984.984 0 0 0 .463.184c.24.036.482.053.724.048l.11.096.066.43-.044.024h-5.161l-.044-.024.066-.43.11-.096c.224.003.447-.009.67-.035.177-.022.347-.091.493-.203.127-.11.235-.244.319-.395.14-.302.219-.633.23-.97.015-.112.026-.243.034-.396.009-.153.01-.338.01-.554v-9.265c0-.27 0-.502-.01-.694-.01-.192-.019-.382-.034-.574a2.688 2.688 0 0 0-.197-.849c-.08-.198-.2-.375-.352-.515a.898.898 0 0 0-.493-.203 5.59 5.59 0 0 0-.67-.037l-.11-.094-.066-.42.044-.097c.102 0 .253 0 .45.02l.604.041.604.039c.198.015.347.02.45.02h1.263c.172.005.344-.02.509-.072l.11.072c.096.319.217.628.363.923.183.392.402.825.66 1.303.257.478.533.99.833 1.53.3.542.604 1.079.912 1.605 1.112 1.945 2.082 3.532 2.91 4.759a105.792 105.792 0 0 1 1.592 2.4c0-.111 0-.216.012-.313.012-.096.01-.206.01-.334V13.43c0-.382-.003-.708-.01-.98l-.022-.695c-.007-.19-.019-.384-.034-.576 0-.323-.068-.642-.197-.934a2 2 0 0 0-.33-.43.93.93 0 0 0-.509-.203 5.975 5.975 0 0 0-.678-.037l-.088-.094-.066-.42.044-.097c.102 0 .25 0 .44.02l.58.041.584.039c.19.015.339.02.439.02h1.471c.19 0 .388 0 .593-.024l.594-.048c.19-.014.339-.031.439-.048l.018.082ZM94.629 24.57c.055-.26.089-.524.1-.79.022-.35.054-.678.098-.98l-.022-.072c-.2.302-.428.582-.678.836a5.647 5.647 0 0 1-.868.738 4.38 4.38 0 0 1-1.017.514 3.349 3.349 0 0 1-1.13.184 2.611 2.611 0 0 1-2.087-.963 2.954 2.954 0 0 1-.527-1.012 4.127 4.127 0 0 1-.17-1.203 3.11 3.11 0 0 1 .373-1.555c.25-.442.588-.817.989-1.096.422-.277.879-.487 1.356-.626a10.061 10.061 0 0 1 2.844-.458h1.098c-.007-.47-.036-.941-.088-1.409a4.813 4.813 0 0 0-.17-.854 1.777 1.777 0 0 0-.833-1.047 2.914 2.914 0 0 0-1.428-.325 4.504 4.504 0 0 0-.757.07 2.663 2.663 0 0 0-.77.263c-.242.127-.455.31-.625.537a1.668 1.668 0 0 0-.309.893l-.088.072h-.497l-.196-1.742.066-.146a1.29 1.29 0 0 1 .461-.318c.268-.127.543-.236.824-.328a8.097 8.097 0 0 1 1.054-.268c.38-.073.766-.109 1.153-.109.498-.004.994.072 1.471.227.43.138.83.37 1.175.681.335.31.601.698.78 1.136.198.502.296 1.044.286 1.59 0 .671 0 1.265-.012 1.782-.012.517-.019.997-.032 1.436a68.883 68.883 0 0 0-.044 2.643c.015.27.052.539.11.802a.68.68 0 0 0 .219.37c.142.138.325.219.517.226.227.024.457.035.691.035l.088.096.022.334-.022.096a4.802 4.802 0 0 0-.857-.072h-.9c-.556 0-1.061.016-1.516.048l-.132-.236Zm0-2.584c.044-.08.091-.176.144-.286.055-.129.088-.267.098-.408l.11-2.39h-.198c-.587-.001-1.174.035-1.758.106-.538.06-1.066.201-1.57.42-.433.185-.82.48-1.13.86-.302.395-.46.898-.44 1.412-.013.264.024.528.107.777.083.248.212.476.377.67.163.179.359.32.574.412.215.092.446.135.677.125.314 0 .626-.058.922-.168.303-.108.594-.253.868-.43.255-.164.497-.35.726-.554.184-.16.35-.343.493-.546ZM107.632 24.546c.057-.26.098-.524.12-.79.037-.351.07-.661.1-.923l-.022-.096a5.332 5.332 0 0 1-1.515 1.626 3.547 3.547 0 0 1-2.065.622 4.613 4.613 0 0 1-2.164-.478 4.33 4.33 0 0 1-1.494-1.268 5.558 5.558 0 0 1-.868-1.806 7.816 7.816 0 0 1-.285-2.117 7.37 7.37 0 0 1 .462-2.769 5.489 5.489 0 0 1 1.164-1.846 4.401 4.401 0 0 1 1.548-1.03 4.549 4.549 0 0 1 1.615-.321 4.25 4.25 0 0 1 2.021.513 4.21 4.21 0 0 1 1.647 1.735l.043-.096c-.029-.369-.043-.724-.043-1.065v-2.726c0-.454 0-.85-.012-1.183-.012-.335-.015-.632-.022-.886-.007-.255-.018-.51-.032-.765a1.232 1.232 0 0 0-.122-.456 2.735 2.735 0 0 0-.169-.286.969.969 0 0 0-.55-.336 3.28 3.28 0 0 0-.678-.07l-.088-.098v-.316l.088-.114h1.339c.331.005.662-.02.989-.076l.769-.127.131.216c-.04.111-.066.228-.077.347a5.711 5.711 0 0 0-.044.539c0 .185-.015.37-.022.554-.006.184-.01.312-.01.406 0 .257 0 .497-.012.72-.012.223-.01.485-.01.788 0 .303 0 .672-.012 1.108-.012.435-.01.982-.01 1.661v5.217c0 .672.003 1.225.01 1.661 0 .432.016.8.022 1.108.007.308.016.566.022.79.007.223.019.478.034.766.015.27.051.538.109.801.031.142.1.27.198.37a.868.868 0 0 0 .527.226c.226.024.452.036.678.035l.087.096.044.334-.044.096a4.71 4.71 0 0 0-.848-.072h-.912c-.542 0-1.04.016-1.493.048l-.144-.267Zm-6.523-5.287a6.54 6.54 0 0 0 .197 1.602c.121.5.322.974.593 1.4.277.433.649.784 1.082 1.02.434.236.915.35 1.4.33a3.132 3.132 0 0 0 1.461-.334c.402-.2.77-.476 1.086-.813.277-.295.511-.633.694-1.005.147-.28.24-.588.274-.908v-2.656a3.663 3.663 0 0 0-.274-.923 4.243 4.243 0 0 0-.66-1.064 3.82 3.82 0 0 0-1.054-.873 2.925 2.925 0 0 0-1.483-.369 2.753 2.753 0 0 0-1.504.395 3.244 3.244 0 0 0-1.032 1.041c-.279.45-.48.95-.593 1.477a7.518 7.518 0 0 0-.187 1.68ZM118.68 24.57c.055-.26.088-.524.099-.79.022-.35.054-.678.098-.98l-.022-.072a5.878 5.878 0 0 1-.678.836 5.844 5.844 0 0 1-.868.738c-.319.216-.66.388-1.017.514a3.36 3.36 0 0 1-1.132.184 2.614 2.614 0 0 1-2.087-.964 2.96 2.96 0 0 1-.526-1.01 4.072 4.072 0 0 1-.169-1.204 3.111 3.111 0 0 1 .373-1.555c.249-.442.587-.816.988-1.096.423-.276.88-.487 1.356-.626a10.124 10.124 0 0 1 2.844-.458h1.099c-.007-.47-.036-.941-.088-1.409a4.66 4.66 0 0 0-.17-.854 1.779 1.779 0 0 0-.834-1.047 2.911 2.911 0 0 0-1.427-.325 4.543 4.543 0 0 0-.758.07 2.687 2.687 0 0 0-.769.263 1.902 1.902 0 0 0-.626.537 1.657 1.657 0 0 0-.307.893l-.088.072h-.483l-.198-1.742.066-.146c.132-.14.289-.248.461-.318.269-.127.544-.236.824-.328a8.137 8.137 0 0 1 1.054-.268 6.143 6.143 0 0 1 1.153-.109c.498-.005.994.072 1.471.227.431.138.831.37 1.177.681.334.311.6.699.779 1.136a4.1 4.1 0 0 1 .285 1.591 87.182 87.182 0 0 1-.044 3.217 80.99 80.99 0 0 0-.044 2.643c.015.27.052.539.11.802a.678.678 0 0 0 .22.37c.141.137.32.217.509.226.227.024.458.035.692.035l.088.096.022.334-.022.096a4.789 4.789 0 0 0-.856-.072h-.902a21.7 21.7 0 0 0-1.515.048l-.138-.236Zm0-2.584c.044-.08.09-.176.143-.286.054-.129.088-.267.098-.408l.11-2.39h-.198c-.587-.001-1.173.035-1.756.106-.539.06-1.068.2-1.572.42-.433.186-.82.48-1.13.86a2.191 2.191 0 0 0-.439 1.412c-.012.264.024.528.107.776.083.249.211.477.376.67.163.18.358.32.574.412.215.093.445.136.677.126.314 0 .626-.058.924-.168.302-.108.592-.253.866-.43a5.62 5.62 0 0 0 .725-.554c.185-.16.351-.343.495-.546ZM129.573 24.57c.055-.26.089-.524.1-.79.022-.35.054-.678.098-.98l-.022-.072a5.706 5.706 0 0 1-.678.836 5.732 5.732 0 0 1-.866.738 4.46 4.46 0 0 1-1.017.514 3.374 3.374 0 0 1-1.133.184 2.64 2.64 0 0 1-1.207-.266 2.6 2.6 0 0 1-.879-.697 2.943 2.943 0 0 1-.527-1.012 4.107 4.107 0 0 1-.17-1.203 3.11 3.11 0 0 1 .373-1.555 3.32 3.32 0 0 1 .988-1.096c.423-.277.88-.487 1.356-.626a10.05 10.05 0 0 1 2.845-.458h1.098c-.007-.47-.036-.941-.088-1.409a4.841 4.841 0 0 0-.17-.854 1.779 1.779 0 0 0-.834-1.047 2.911 2.911 0 0 0-1.427-.325 4.511 4.511 0 0 0-.758.07 2.687 2.687 0 0 0-.769.263c-.242.127-.455.31-.626.537a1.667 1.667 0 0 0-.308.893l-.087.072h-.483l-.21-1.742.066-.146c.132-.14.289-.248.461-.318.269-.127.544-.236.824-.328a8.104 8.104 0 0 1 1.054-.268 6.16 6.16 0 0 1 1.153-.109c.498-.004.994.072 1.471.227.43.138.83.37 1.175.681.335.31.602.698.78 1.136.2.501.297 1.044.286 1.59 0 .67-.004 1.264-.012 1.782 0 .519-.018.997-.032 1.436a72.189 72.189 0 0 0-.044 2.643c.015.27.052.539.11.802a.68.68 0 0 0 .219.37c.143.138.325.219.517.226.227.024.458.035.691.035l.089.096.022.334-.022.096a4.798 4.798 0 0 0-.856-.072h-.902c-.556 0-1.061.016-1.516.048l-.133-.236Zm0-2.584c.044-.08.091-.176.144-.286.054-.129.088-.267.098-.408l.11-2.39h-.198c-.587-.001-1.173.035-1.756.106-.539.06-1.068.2-1.572.42-.433.185-.821.48-1.13.86a2.191 2.191 0 0 0-.439 1.412c-.012.264.024.528.107.776.083.249.211.477.376.67.163.18.358.32.574.412.215.093.446.136.677.126.314 0 .625-.058.922-.168.303-.108.594-.253.868-.43a5.62 5.62 0 0 0 .725-.554c.185-.16.351-.343.494-.546Z"/></g><defs><clipPath id="b"><path fill="#fff" transform="translate(6 2)" d="M0 0h21v27H0z"/></clipPath><clipPath id="c"><path fill="#fff" transform="translate(33 7)" d="M0 0h100v18H0z"/></clipPath><filter id="a" x="-3" y="-2" width="38" height="38" filterUnits="userSpaceOnUse" color-interpolation-filters="sRGB"><feFlood flood-opacity="0" result="BackgroundImageFix"/><feColorMatrix in="SourceAlpha" values="0 0 0 0 0 0 0 0 0 0 0 0 0 0 0 0 0 0 127 0" result="hardAlpha"/><feOffset dy="1"/><feGaussianBlur stdDeviation="1"/><feColorMatrix values="0 0 0 0 0.0627451 0 0 0 0 0.0941176 0 0 0 0 0.156863 0 0 0 0.06 0"/><feBlend in2="BackgroundImageFix" result="effect1_dropShadow_7501_446662"/><feColorMatrix in="SourceAlpha" values="0 0 0 0 0 0 0 0 0 0 0 0 0 0 0 0 0 0 127 0" result="hardAlpha"/><feOffset dy="1"/><feGaussianBlur stdDeviation="1.5"/><feColorMatrix values="0 0 0 0 0.0627451 0 0 0 0 0.0941176 0 0 0 0 0.156863 0 0 0 0.1 0"/><feBlend in2="effect1_dropShadow_7501_446662" result="effect2_dropShadow_7501_446662"/><feBlend in="SourceGraphic" in2="effect2_dropShadow_7501_446662" result="shape"/></filter></defs></svg>